<?xml version="1.0" encoding="UTF-8"?>
<svg version="1.1" xmlns="http://www.w3.org/2000/svg" width="224" height="224">
<path d="M0 0 C1.06589355 0.00081573 1.06589355 0.00081573 2.15332031 0.00164795 C13.08882953 0.04014893 23.02023581 0.79199194 33.4375 4.375 C34.45602051 4.71241211 34.45602051 4.71241211 35.49511719 5.05664062 C64.02185656 14.58743344 85.51424445 33.52521393 100.4375 59.375 C100.90027344 60.16132812 101.36304688 60.94765625 101.83984375 61.7578125 C108.76040742 74.44919763 112.52949927 89.24529231 112.67578125 103.625 C112.683853 104.40077393 112.69192474 105.17654785 112.70024109 105.97583008 C112.71400197 107.61293357 112.72475945 109.25006479 112.73266602 110.88720703 C112.74412282 112.53150074 112.76447348 114.17575913 112.79418945 115.81982422 C113.05779612 130.45514874 110.99490523 142.92618289 104.6875 156.3125 C104.37167969 157.00794922 104.05585938 157.70339844 103.73046875 158.41992188 C102.97650063 160.07636698 102.20867874 161.72649714 101.4375 163.375 C97.23727045 161.51888196 95.92281735 159.24917116 93.4375 155.375 C89.05411686 149.25175093 83.74750906 144.40449155 76.140625 142.9296875 C70.51256266 142.63858083 66.04559674 144.17754512 61.4375 147.375 C57.30190847 151.40176018 55.61761432 155.73268811 55.33203125 161.5078125 C55.85027602 172.52531233 64.44684557 179.78068051 71.67456055 187.23486328 C72.27308838 187.85603027 72.87161621 188.47719727 73.48828125 189.1171875 C74.03137939 189.6726123 74.57447754 190.22803711 75.1340332 190.80029297 C76.4375 192.375 76.4375 192.375 77.4375 195.375 C76.4475 196.365 75.4575 197.355 74.4375 198.375 C69.5140791 195.69810507 66.47855065 192.30865067 62.8515625 188.10546875 C60.49518612 185.36705311 60.49518612 185.36705311 57.9609375 182.98828125 C51.20062473 176.32706101 49.81313274 170.72930261 48.4375 161.375 C40.5175 161.705 32.5975 162.035 24.4375 162.375 C23.16083341 158.54500022 22.12467066 155.26896706 21.4375 151.375 C19.7875 151.375 18.1375 151.375 16.4375 151.375 C15.45988333 155.22494127 15.50382043 158.1771823 16.14453125 162.0859375 C16.31919922 163.16617188 16.49386719 164.24640625 16.67382812 165.359375 C16.86396484 166.47828125 17.05410156 167.5971875 17.25 168.75 C17.42853516 169.86117187 17.60707031 170.97234375 17.79101562 172.1171875 C20.61776832 189.26139155 27.99402106 197.14767716 41.81347656 207.25097656 C44.87808598 209.37206221 48.00839462 210.93477574 51.4375 212.375 C48.40821346 215.80479317 45.7108865 217.35069104 41.4375 218.9375 C40.40625 219.33066406 39.375 219.72382813 38.3125 220.12890625 C37.02335557 220.55203406 35.73135962 220.9665177 34.4375 221.375 C33.2760144 221.77319946 33.2760144 221.77319946 32.09106445 222.17944336 C22.69838124 225.00489832 13.27582945 224.86415131 3.55737305 224.82104492 C0.64104257 224.81254675 -2.27331554 224.84135774 -5.18945312 224.87304688 C-16.3068834 224.91548162 -26.02679349 224.07075384 -36.5625 220.375 C-37.77111694 219.95142212 -37.77111694 219.95142212 -39.00415039 219.51928711 C-53.25161279 214.10683389 -66.60223334 205.99954678 -77.5625 195.375 C-77.5625 194.715 -77.5625 194.055 -77.5625 193.375 C-78.39007813 193.07529297 -78.39007813 193.07529297 -79.234375 192.76953125 C-82.50130433 190.81266251 -84.53127027 188.04284849 -86.8125 185.0625 C-87.29485107 184.43730469 -87.77720215 183.81210938 -88.27416992 183.16796875 C-108.49725038 156.54823637 -114.67158959 126.35370125 -111.26220703 93.47949219 C-110.49315936 88.61440844 -109.16159189 84.03819033 -107.5625 79.375 C-107.34819336 78.71193848 -107.13388672 78.04887695 -106.91308594 77.36572266 C-102.83019151 64.7990847 -96.91408997 52.69166997 -88.5625 42.375 C-87.9025 42.375 -87.2425 42.375 -86.5625 42.375 C-86.3046875 41.80265625 -86.046875 41.2303125 -85.78125 40.640625 C-75.35180153 21.25254771 -49.61791695 9.51839955 -29.546875 3.41796875 C-28.22114436 3.06129081 -26.89286027 2.71400211 -25.5625 2.375 C-24.84908447 2.18808594 -24.13566895 2.00117187 -23.40063477 1.80859375 C-15.66665374 0.00868544 -7.89820322 -0.02269335 0 0 Z M11.4375 44.375 C14.89708301 47.09211543 18.51949911 49.07530519 22.4140625 51.09375 C24.4375 52.375 24.4375 52.375 26.4375 55.375 C26.37671445 61.7270895 24.05518851 64.71587692 19.9375 69.125 C18.82972372 70.36238185 17.72296046 71.60067133 16.6171875 72.83984375 C15.79879395 73.74452393 15.79879395 73.74452393 14.96386719 74.66748047 C12.92360958 76.94987997 10.98800381 79.30786793 9.0625 81.6875 C8.35996094 82.54988281 7.65742187 83.41226563 6.93359375 84.30078125 C5.53944119 86.01783612 4.14585223 87.7353504 2.75439453 89.45458984 C0.88223423 91.76492587 -0.99612608 94.07012206 -2.875 96.375 C-3.47425293 97.11790283 -4.07350586 97.86080566 -4.69091797 98.6262207 C-5.54967529 99.67749146 -5.54967529 99.67749146 -6.42578125 100.75 C-6.93407471 101.37648438 -7.44236816 102.00296875 -7.96606445 102.6484375 C-10.49406622 105.38249906 -12.4874562 107.20875611 -16.21484375 107.78515625 C-21.70506231 107.11249237 -26.57011829 104.85687428 -31.66210938 102.77539062 C-34.98917574 101.4714335 -37.76848218 100.39607031 -41.359375 100.30078125 C-44.63439919 101.89764588 -46.13883167 104.18585224 -48.25 107.125 C-49.40048828 108.69507812 -49.40048828 108.69507812 -50.57421875 110.296875 C-53.40183722 114.67440615 -54.84359884 117.95818892 -54.6875 123.1875 C-54.66945312 123.97769531 -54.65140625 124.76789063 -54.6328125 125.58203125 C-54.60960937 126.17371094 -54.58640625 126.76539062 -54.5625 127.375 C-50.94752261 125.90341629 -49.15658489 123.96037669 -46.8125 120.875 C-46.19890625 120.0809375 -45.5853125 119.286875 -44.953125 118.46875 C-43.3780784 116.51624635 -43.3780784 116.51624635 -43.5625 114.375 C-38.77837436 111.57206521 -33.96016286 111.62332547 -28.5625 112.375 C-25.29239516 114.402465 -24.05529884 115.79627319 -22.91015625 119.46484375 C-21.84887227 125.37771164 -23.27224767 128.57671536 -26.5625 133.375 C-27.57696612 135.36770131 -28.58215496 137.36529266 -29.5625 139.375 C-24.98558449 138.91090717 -23.25917578 137.45961564 -20.3125 134 C-19.53132813 133.09121094 -18.75015625 132.18242187 -17.9453125 131.24609375 C-14.92712405 127.60942405 -11.91905942 123.96611608 -8.9453125 120.29296875 C-6.35494248 117.12082711 -3.71571062 113.99453249 -1.0625 110.875 C2.29210405 106.92861117 5.60972172 102.95857507 8.875 98.9375 C11.85778202 95.26926717 14.89502983 91.65753469 17.98535156 88.08007812 C19.5400347 86.2760681 21.08087517 84.46089258 22.62109375 82.64453125 C24.27560667 80.69938314 25.9450245 78.85012424 27.72265625 77.01171875 C32.93420273 71.32931386 33.03333878 66.47528232 33.22265625 58.91015625 C33.55672359 53.41322995 35.06098467 49.71532474 38.9765625 45.859375 C43.14540797 42.54714161 47.25724466 41.3746984 52.4375 40.375 C51.9425 38.89 51.9425 38.89 51.4375 37.375 C38.65192979 31.30185415 22.5117701 37.39142967 11.4375 44.375 Z M42.5625 48.1875 C37.68783652 53.20553594 36.96150597 58.13621312 37.01635742 64.88867188 C37.29255632 74.88860051 38.9471434 84.80968055 40.37109375 94.6953125 C41.07168008 99.5804158 41.67772505 104.4557991 42.16015625 109.3671875 C42.27190186 110.44806641 42.38364746 111.52894531 42.4987793 112.64257812 C42.7011606 114.64717671 42.88501106 116.65377417 43.04614258 118.66210938 C43.84388522 126.19462794 46.57897435 131.19159913 52.44677734 136.03271484 C56.81321874 138.97687658 61.36593771 138.83989321 66.4375 138.375 C73.0002701 136.29678947 76.68788998 133.17437603 80.3125 127.375 C83.42866824 119.20606178 80.21853461 108.58319697 79.03515625 100.203125 C78.50950189 96.20068064 78.12166363 92.19104103 77.74609375 88.171875 C77.56119385 86.2081897 77.56119385 86.2081897 77.37255859 84.20483398 C77.12699622 81.58260413 76.89372126 78.96015946 76.66650391 76.33618164 C75.75635431 61.05693772 75.75635431 61.05693772 68.4375 48.375 C59.76496671 42.0598386 51.46603983 42.5743988 42.5625 48.1875 Z M2.0625 50.5625 C0.763125 51.9546875 0.763125 51.9546875 -0.5625 53.375 C-3.09783772 55.92735341 -5.65013945 58.4614761 -8.2109375 60.98828125 C-12.88693747 65.61738724 -17.47764526 70.26084116 -21.7421875 75.27734375 C-24.80043742 78.8015502 -28.02849462 82.17281792 -31.23046875 85.56640625 C-33.83025868 88.69747654 -35.63860252 91.79699297 -37.5625 95.375 C-34.34319019 96.61082122 -31.11099149 97.80861767 -27.875 99 C-26.50698242 99.5259375 -26.50698242 99.5259375 -25.11132812 100.0625 C-24.22509766 100.38476562 -23.33886719 100.70703125 -22.42578125 101.0390625 C-21.20822144 101.49466553 -21.20822144 101.49466553 -19.96606445 101.95947266 C-16.86489149 102.4956023 -15.31925162 101.82738642 -12.5625 100.375 C-10.77232306 98.5557145 -9.20692264 96.79659628 -7.625 94.8125 C-7.1604541 94.2467627 -6.6959082 93.68102539 -6.21728516 93.09814453 C-5.2024134 91.86063424 -4.19184895 90.61958215 -3.18505859 89.37548828 C-0.89152587 86.54774119 1.43242378 83.74548442 3.75390625 80.94067383 C5.54511145 78.77106203 7.32564225 76.59301212 9.10546875 74.4140625 C11.1531171 71.91418359 13.2288176 69.44953489 15.36328125 67.0234375 C16.19214844 66.06695312 17.02101562 65.11046875 17.875 64.125 C18.59558594 63.31546875 19.31617188 62.5059375 20.05859375 61.671875 C21.63905829 59.45053443 21.63905829 59.45053443 21.55859375 56.78515625 C19.8965745 53.21210441 17.6281806 52.58558873 14.0625 51.0625 C12.89976563 50.55074219 11.73703125 50.03898437 10.5390625 49.51171875 C5.9007887 47.80362425 5.9007887 47.80362425 2.0625 50.5625 Z M32.4375 77.375 C28.97492409 80.92380864 25.71051407 84.65219296 22.4375 88.375 C21.7053125 89.19613281 20.973125 90.01726562 20.21875 90.86328125 C19.5896875 91.60964844 18.960625 92.35601562 18.3125 93.125 C17.75304687 93.77984375 17.19359375 94.4346875 16.6171875 95.109375 C13.25034329 101.57549964 16.2880818 110.81013572 17.375 117.625 C17.55740234 118.80835938 17.73980469 119.99171875 17.92773438 121.2109375 C18.8422271 127.37282309 18.8422271 127.37282309 20.4375 133.375 C21.4275 133.705 22.4175 134.035 23.4375 134.375 C26.06092703 141.0107272 26.52095912 148.3449364 27.4375 155.375 C31.92142593 156.60588163 36.01820184 156.20441871 40.5625 155.625 C41.63564453 155.51285156 41.63564453 155.51285156 42.73046875 155.3984375 C46.77496544 154.9048888 46.77496544 154.9048888 50.2890625 152.984375 C50.85753906 152.18773437 50.85753906 152.18773437 51.4375 151.375 C52.18 150.385 52.9225 149.395 53.6875 148.375 C54.265 147.385 54.8425 146.395 55.4375 145.375 C54.27038579 141.87365736 53.85691857 141.84784383 50.75 140.25 C44.30651087 136.40935657 40.89691679 130.61551843 38.92007446 123.48370361 C37.98397955 119.39325356 37.59402794 115.23373023 37.1484375 111.06640625 C37.04028717 110.09968491 36.93213684 109.13296356 36.82070923 108.13694763 C36.47901616 105.07105763 36.14563658 102.00433033 35.8125 98.9375 C35.58127899 96.84954841 35.34951389 94.761657 35.1171875 92.67382812 C34.5509924 87.57489364 33.99224773 82.47519209 33.4375 77.375 C33.1075 77.375 32.7775 77.375 32.4375 77.375 Z M-43.86328125 123.98046875 C-45.34238816 126.06481941 -46.51080391 128.0527269 -47.5625 130.375 C-45.984424 131.21824672 -44.3997958 132.04923918 -42.8125 132.875 C-41.48992187 133.57109375 -41.48992187 133.57109375 -40.140625 134.28125 C-37.41553528 135.63536656 -37.41553528 135.63536656 -33.5625 135.375 C-30.73351701 132.72902399 -28.93001177 129.3397184 -27.5625 125.75 C-27.5625 122.36370323 -28.3147876 120.90367644 -30.5625 118.375 C-37.30801214 115.46517123 -39.76675913 118.99864716 -43.86328125 123.98046875 Z M-58.25 135.125 C-58.85199219 135.47046875 -59.45398437 135.8159375 -60.07421875 136.171875 C-61.8715052 137.4037454 -61.8715052 137.4037454 -62.5625 140.375 C-62.63279121 142.94765818 -62.65620832 145.49141431 -62.625 148.0625 C-62.62048828 148.76439453 -62.61597656 149.46628906 -62.61132812 150.18945312 C-62.59956927 151.91800538 -62.58163454 153.64651365 -62.5625 155.375 C-59.98823716 156.76989126 -57.40546943 158.14070979 -54.8125 159.5 C-54.08289062 159.89832031 -53.35328125 160.29664063 -52.6015625 160.70703125 C-51.53808594 161.25810547 -51.53808594 161.25810547 -50.453125 161.8203125 C-49.80375977 162.16594238 -49.15439453 162.51157227 -48.48535156 162.86767578 C-46.51623198 163.585594 -46.51623198 163.585594 -44.49121094 162.59716797 C-42.00415545 161.02119332 -39.76359827 159.3315318 -37.5625 157.375 C-37.5625 156.715 -37.5625 156.055 -37.5625 155.375 C-36.9025 155.375 -36.2425 155.375 -35.5625 155.375 C-33.40729746 153.60465506 -32.68053244 152.13548752 -32.25390625 149.38671875 C-32.41547924 146.3689523 -32.86402095 144.91648944 -34.5625 142.375 C-40.26336356 138.2144908 -51.49898036 131.08317479 -58.25 135.125 Z M-75.6875 145.3125 C-76.57695313 145.67214844 -77.46640625 146.03179687 -78.3828125 146.40234375 C-80.49644997 147.18975568 -80.49644997 147.18975568 -81.5625 148.375 C-81.40285846 155.82903177 -80.21548926 163.12110539 -78.5625 170.375 C-77.9025 170.375 -77.2425 170.375 -76.5625 170.375 C-76.583125 169.48296875 -76.60375 168.5909375 -76.625 167.671875 C-76.56176603 164.08334742 -76.39910859 160.8695838 -75.5625 157.375 C-73.55785047 155.70733897 -71.83350233 155.09162691 -69.37890625 154.26171875 C-68.77949219 153.96910156 -68.18007812 153.67648438 -67.5625 153.375 C-66.37585999 149.39626584 -66.25253108 147.30490675 -67.5625 143.375 C-70.82899881 143.375 -72.68538481 144.0827706 -75.6875 145.3125 Z M-35.75 160.625 C-37.49207337 162.22026534 -37.49207337 162.22026534 -38.5625 164.375 C-38.46598432 167.19310447 -38.46598432 167.19310447 -37.875 170.1875 C-37.25687617 174.24583762 -37.11021804 175.71872964 -39.4765625 179.15234375 C-41.74941836 181.37946103 -44.04450998 183.4312884 -46.5625 185.375 C-45.9025 185.705 -45.2425 186.035 -44.5625 186.375 C-41.55390737 185.14370331 -38.80129363 183.39190109 -36 181.75 C-34.80987305 181.09064453 -34.80987305 181.09064453 -33.59570312 180.41796875 C-29.2138918 177.95793659 -29.2138918 177.95793659 -26.4140625 173.96484375 C-26.60707389 170.59730294 -27.43372396 167.76132813 -28.5 164.5625 C-28.88027344 163.40105469 -29.26054688 162.23960937 -29.65234375 161.04296875 C-29.95269531 160.16253906 -30.25304687 159.28210938 -30.5625 158.375 C-32.94044776 158.18277227 -32.94044776 158.18277227 -35.75 160.625 Z " fill="#0E81A6" transform="translate(111.5625,-0.375)"/>
<path d="M0 0 C1.04897461 0.0009668 1.04897461 0.0009668 2.11914062 0.00195312 C6.2388405 0.03663722 10.1462914 0.39448418 14.1875 1.1875 C14.1875 1.8475 14.1875 2.5075 14.1875 3.1875 C14.8475 3.1875 15.5075 3.1875 16.1875 3.1875 C16.1875 3.8475 16.1875 4.5075 16.1875 5.1875 C16.8475 5.1875 17.5075 5.1875 18.1875 5.1875 C18.8475 6.5075 19.5075 7.8275 20.1875 9.1875 C17.49153303 10.98481132 15.84399901 11.65676734 12.8125 12.5 C7.8556223 14.09587282 4.87929424 16.49138974 2.08203125 20.94921875 C-2.54119305 32.51737387 2.42978345 49.75950805 4.12109375 61.5078125 C4.82168008 66.3929158 5.42772505 71.2682991 5.91015625 76.1796875 C6.02190186 77.26056641 6.13364746 78.34144531 6.2487793 79.45507812 C6.4511606 81.45967671 6.63501106 83.46627417 6.79614258 85.47460938 C7.49831087 92.10468707 9.51466554 96.38716359 14.1875 101.1875 C18.95107572 104.57493162 23.52427019 104.9089935 29.1875 104.1875 C34.39551547 102.5382951 37.73303204 100.43156064 41.1875 96.1875 C42.93153079 91.95453034 43.38139626 88.78825515 42.9375 84.25 C42.82664062 83.095 42.71578125 81.94 42.6015625 80.75 C42.06818032 76.16090045 41.43113094 71.59008282 40.78515625 67.015625 C40.25950189 63.01318064 39.87166363 59.00354103 39.49609375 54.984375 C39.37282715 53.67525146 39.24956055 52.36612793 39.12255859 51.01733398 C38.87699622 48.39510413 38.64372126 45.77265946 38.41650391 43.14868164 C37.50611433 29.32411476 37.50611433 29.32411476 31.75 17.1875 C30.4815625 16.1975 30.4815625 16.1975 29.1875 15.1875 C27.85416667 13.85416667 26.52083333 12.52083333 25.1875 11.1875 C27.1675 11.5175 29.1475 11.8475 31.1875 12.1875 C31.1875 12.8475 31.1875 13.5075 31.1875 14.1875 C32.1775 14.5175 33.1675 14.8475 34.1875 15.1875 C35.52083333 16.52083333 36.85416667 17.85416667 38.1875 19.1875 C38.8475 19.1875 39.5075 19.1875 40.1875 19.1875 C40.06181641 20.39986328 40.06181641 20.39986328 39.93359375 21.63671875 C39.78083984 23.23966797 39.78083984 23.23966797 39.625 24.875 C39.52058594 25.93074219 39.41617188 26.98648438 39.30859375 28.07421875 C39.19277079 31.05198957 39.50237584 33.30634875 40.1875 36.1875 C41.03178528 40.54472053 41.29528233 44.6248319 41.25 49.0625 C41.24097656 50.21492188 41.23195313 51.36734375 41.22265625 52.5546875 C41.21105469 53.42351562 41.19945312 54.29234375 41.1875 55.1875 C41.8475 55.1875 42.5075 55.1875 43.1875 55.1875 C43.2376123 55.90929443 43.28772461 56.63108887 43.33935547 57.37475586 C43.57056799 60.62562489 43.81633319 63.87523066 44.0625 67.125 C44.14113281 68.26130859 44.21976562 69.39761719 44.30078125 70.56835938 C44.38457031 71.64794922 44.46835938 72.72753906 44.5546875 73.83984375 C44.66466064 75.34019165 44.66466064 75.34019165 44.77685547 76.87084961 C44.98012451 78.01759155 44.98012451 78.01759155 45.1875 79.1875 C45.8475 79.5175 46.5075 79.8475 47.1875 80.1875 C46.5275 80.1875 45.8675 80.1875 45.1875 80.1875 C45.5175 80.8475 45.8475 81.5075 46.1875 82.1875 C46.85099899 91.80823541 43.47294815 98.33244662 38.1875 106.1875 C38.81398438 106.21328125 39.44046875 106.2390625 40.0859375 106.265625 C41.31183594 106.35070312 41.31183594 106.35070312 42.5625 106.4375 C43.37460938 106.48390625 44.18671875 106.5303125 45.0234375 106.578125 C47.1875 107.1875 47.1875 107.1875 48.3359375 109.08984375 C48.61695313 109.78207031 48.89796875 110.47429687 49.1875 111.1875 C50.8311814 112.87683922 52.5017876 114.54009924 54.1875 116.1875 C55.76841149 118.0170069 57.31797437 119.86828684 58.85546875 121.734375 C60.1454691 123.31529183 60.1454691 123.31529183 62.1875 124.1875 C62.1875 124.8475 62.1875 125.5075 62.1875 126.1875 C62.8475 126.1875 63.5075 126.1875 64.1875 126.1875 C64.36925781 125.58164063 64.55101562 124.97578125 64.73828125 124.3515625 C64.98964844 123.51367188 65.24101562 122.67578125 65.5 121.8125 C65.77328125 120.89855469 66.0465625 119.98460937 66.328125 119.04296875 C66.87344375 117.23102328 67.42481499 115.42087953 67.984375 113.61328125 C70.68876222 104.8240228 72.45938084 96.3656336 73.1875 87.1875 C75.56503415 89.56503415 75.50799854 90.1212631 75.5625 93.375 C75.24249997 106.49500111 69.64919856 118.51235223 64.1875 130.1875 C59.98727045 128.33138196 58.67281735 126.06167116 56.1875 122.1875 C51.80411686 116.06425093 46.49750906 111.21699155 38.890625 109.7421875 C33.26256266 109.45108083 28.79559674 110.99004512 24.1875 114.1875 C20.05190847 118.21426018 18.36761432 122.54518811 18.08203125 128.3203125 C18.60027602 139.33781233 27.19684557 146.59318051 34.42456055 154.04736328 C35.02308838 154.66853027 35.62161621 155.28969727 36.23828125 155.9296875 C36.78137939 156.4851123 37.32447754 157.04053711 37.8840332 157.61279297 C39.1875 159.1875 39.1875 159.1875 40.1875 162.1875 C39.1975 163.1775 38.2075 164.1675 37.1875 165.1875 C32.2640791 162.51060507 29.22855065 159.12115067 25.6015625 154.91796875 C23.24518612 152.17955311 23.24518612 152.17955311 20.7109375 149.80078125 C13.95062473 143.13956101 12.56313274 137.54180261 11.1875 128.1875 C3.2675 128.5175 -4.6525 128.8475 -12.8125 129.1875 C-14.08916659 125.35750022 -15.12532934 122.08146706 -15.8125 118.1875 C-17.4625 118.1875 -19.1125 118.1875 -20.8125 118.1875 C-21.79011667 122.03744127 -21.74617957 124.9896823 -21.10546875 128.8984375 C-20.93080078 129.97867188 -20.75613281 131.05890625 -20.57617188 132.171875 C-20.38603516 133.29078125 -20.19589844 134.4096875 -20 135.5625 C-19.82146484 136.67367187 -19.64292969 137.78484375 -19.45898438 138.9296875 C-16.63223168 156.07389155 -9.25597894 163.96017716 4.56347656 174.06347656 C7.62808598 176.18456221 10.75839462 177.74727574 14.1875 179.1875 C7.43041817 186.83794601 -5.03204674 189.48112305 -14.8125 191.1875 C-16.81200866 191.23182983 -18.81328255 191.24344276 -20.8125 191.1875 C-20.8125 190.5275 -20.8125 189.8675 -20.8125 189.1875 C-19.76191406 189.01734375 -18.71132812 188.8471875 -17.62890625 188.671875 C-10.50480178 187.46133712 -3.90350572 186.30197592 2.5859375 182.95703125 C4.1875 182.1875 4.1875 182.1875 6.1875 182.1875 C5.81069858 179.61084323 5.46740468 178.44320731 3.515625 176.66015625 C2.82984375 176.19480469 2.1440625 175.72945312 1.4375 175.25 C-2.04103931 172.86680227 -4.8767222 170.21754589 -7.8125 167.1875 C-9.51830311 165.43503359 -11.226617 163.68500741 -12.9375 161.9375 C-14.20980469 160.63039062 -14.20980469 160.63039062 -15.5078125 159.296875 C-17.7072977 156.99632371 -17.7072977 156.99632371 -20.8125 156.1875 C-20.80089844 155.40503906 -20.78929687 154.62257812 -20.77734375 153.81640625 C-20.76832031 152.80449219 -20.75929687 151.79257813 -20.75 150.75 C-20.73839844 149.74066406 -20.72679687 148.73132813 -20.71484375 147.69140625 C-20.52637324 145.24728933 -20.52637324 145.24728933 -21.8125 144.1875 C-22.35282222 141.39779286 -22.84996602 138.61518113 -23.3125 135.8125 C-23.57080542 134.26266748 -23.83114409 132.71317214 -24.09375 131.1640625 C-24.20783203 130.47393066 -24.32191406 129.78379883 -24.43945312 129.07275391 C-24.81351807 126.97434306 -24.81351807 126.97434306 -25.8125 124.1875 C-25.39453125 121.99609375 -25.39453125 121.99609375 -24.625 119.625 C-24.38394531 118.83996094 -24.14289063 118.05492187 -23.89453125 117.24609375 C-22.54328918 114.67531913 -21.53798185 114.10928088 -18.8125 113.1875 C-17.4925 113.1875 -16.1725 113.1875 -14.8125 113.1875 C-14.8125 109.5575 -14.8125 105.9275 -14.8125 102.1875 C-15.8025 102.1875 -16.7925 102.1875 -17.8125 102.1875 C-19.95586161 98.7108662 -20.02527626 95.97520805 -19.9375 91.9375 C-19.91945312 90.85984375 -19.90140625 89.7821875 -19.8828125 88.671875 C-19.85960937 87.85203125 -19.83640625 87.0321875 -19.8125 86.1875 C-20.4725 86.1875 -21.1325 86.1875 -21.8125 86.1875 C-22.14716374 83.22931155 -22.48029007 80.27096412 -22.8125 77.3125 C-22.90789062 76.47074219 -23.00328125 75.62898438 -23.1015625 74.76171875 C-23.23691406 73.55322266 -23.23691406 73.55322266 -23.375 72.3203125 C-23.45878906 71.57668457 -23.54257813 70.83305664 -23.62890625 70.06689453 C-23.8125 68.1875 -23.8125 68.1875 -23.8125 66.1875 C-26.2875 66.6825 -26.2875 66.6825 -28.8125 67.1875 C-28.8125 67.8475 -28.8125 68.5075 -28.8125 69.1875 C-29.8025 68.8575 -30.7925 68.5275 -31.8125 68.1875 C-31.26722656 67.59324219 -30.72195312 66.99898438 -30.16015625 66.38671875 C-25.27696792 61.01938525 -20.54254491 55.57231925 -16.02734375 49.890625 C-13.8125 47.1875 -13.8125 47.1875 -11.50390625 44.796875 C-5.75832731 38.61090409 -5.14776861 34.01890668 -4.98828125 25.68359375 C-4.70047459 19.95943916 -3.05159768 16.4414919 0.94921875 12.4140625 C5.57277364 8.54444682 9.20366851 7.40120827 15.1875 7.1875 C12.96834431 4.63547096 11.48445258 3.81691822 8.1875 3.1875 C1.82687263 2.76675811 -4.49971242 3.44947055 -10.8125 4.1875 C-10.8125 3.5275 -10.8125 2.8675 -10.8125 2.1875 C-7.10805241 -0.28213173 -4.27835951 -0.07369794 0 0 Z M-4.8125 44.1875 C-8.27507591 47.73630864 -11.53948593 51.46469296 -14.8125 55.1875 C-15.5446875 56.00863281 -16.276875 56.82976562 -17.03125 57.67578125 C-17.6603125 58.42214844 -18.289375 59.16851562 -18.9375 59.9375 C-19.49695313 60.59234375 -20.05640625 61.2471875 -20.6328125 61.921875 C-23.99965671 68.38799964 -20.9619182 77.62263572 -19.875 84.4375 C-19.69259766 85.62085938 -19.51019531 86.80421875 -19.32226562 88.0234375 C-18.4077729 94.18532309 -18.4077729 94.18532309 -16.8125 100.1875 C-15.8225 100.5175 -14.8325 100.8475 -13.8125 101.1875 C-11.18907297 107.8232272 -10.72904088 115.1574364 -9.8125 122.1875 C-5.32857407 123.41838163 -1.23179816 123.01691871 3.3125 122.4375 C4.38564453 122.32535156 4.38564453 122.32535156 5.48046875 122.2109375 C9.52496544 121.7173888 9.52496544 121.7173888 13.0390625 119.796875 C13.60753906 119.00023437 13.60753906 119.00023437 14.1875 118.1875 C14.93 117.1975 15.6725 116.2075 16.4375 115.1875 C17.015 114.1975 17.5925 113.2075 18.1875 112.1875 C17.02038579 108.68615736 16.60691857 108.66034383 13.5 107.0625 C7.05651087 103.22185657 3.64691679 97.42801843 1.67007446 90.29620361 C0.73397955 86.20575356 0.34402794 82.04623023 -0.1015625 77.87890625 C-0.20971283 76.91218491 -0.31786316 75.94546356 -0.42929077 74.94944763 C-0.77098384 71.88355763 -1.10436342 68.81683033 -1.4375 65.75 C-1.66872101 63.66204841 -1.90048611 61.574157 -2.1328125 59.48632812 C-2.6990076 54.38739364 -3.25775227 49.28769209 -3.8125 44.1875 C-4.1425 44.1875 -4.4725 44.1875 -4.8125 44.1875 Z " fill="#19758F" transform="translate(148.8125,32.8125)"/>
<path d="M0 0 C6.40934091 0.49302622 12.17549387 3.3320763 16.83203125 7.73046875 C18.6283507 11.22097578 18.04913961 13.26442715 17 17 C15.41965437 19.49694609 13.51305754 21.59446579 11.5 23.75 C10.39222372 24.98738185 9.28546046 26.22567133 8.1796875 27.46484375 C7.36129395 28.36952393 7.36129395 28.36952393 6.52636719 29.29248047 C4.48610958 31.57487997 2.55050381 33.93286793 0.625 36.3125 C-0.07882813 37.17617187 -0.78265625 38.03984375 -1.5078125 38.9296875 C-2.89580215 40.63965594 -4.28298104 42.35028643 -5.66699219 44.06347656 C-7.52324418 46.35871378 -9.38637062 48.64825077 -11.25 50.9375 C-11.84087402 51.67202393 -12.43174805 52.40654785 -13.04052734 53.16333008 C-20.75007607 62.61096416 -20.75007607 62.61096416 -25.7109375 63.46875 C-30.2999249 62.81473754 -34.33373483 61.20990412 -38.625 59.5 C-40.30233474 58.83775961 -41.98195629 58.18127527 -43.6640625 57.53125 C-44.40092285 57.23798828 -45.1377832 56.94472656 -45.89697266 56.64257812 C-48.27106774 55.8051914 -48.27106774 55.8051914 -52 56 C-54.41659073 58.48227287 -54.41659073 58.48227287 -56.625 61.6875 C-57.78902344 63.27111328 -57.78902344 63.27111328 -58.9765625 64.88671875 C-60.72492715 67.57677015 -61.95849459 69.98187409 -63 73 C-63.66 71.68 -64.32 70.36 -65 69 C-64.60167969 68.49210937 -64.20335937 67.98421875 -63.79296875 67.4609375 C-61.33627885 64.26903383 -59.15549971 61.31698018 -57.375 57.6875 C-55.85057781 54.70794754 -54.91412593 53.60226855 -52 52 C-49.203125 52.36328125 -49.203125 52.36328125 -46.25 53.3125 C-45.26515625 53.61800781 -44.2803125 53.92351562 -43.265625 54.23828125 C-42.51796875 54.48964844 -41.7703125 54.74101563 -41 55 C-42.98 54.01 -44.96 53.02 -47 52 C-47 51.34 -47 50.68 -47 50 C-46.33355469 50.18175781 -45.66710937 50.36351562 -44.98046875 50.55078125 C-43.59794922 50.92783203 -43.59794922 50.92783203 -42.1875 51.3125 C-36.45833333 52.875 -30.72916667 54.4375 -25 56 C-17.43634788 48.68033666 -10.6718164 40.73319305 -4.25219727 32.40698242 C-1.86082079 29.31866409 0.57548562 26.2984242 3.14453125 23.35546875 C3.90854248 22.47822144 3.90854248 22.47822144 4.68798828 21.58325195 C5.66620828 20.46885838 6.652545 19.36152253 7.64794922 18.26245117 C10.37812468 15.14761009 11 14.32794216 11 10 C8.9237343 8.96486753 6.83868521 7.94733789 4.75 6.9375 C3.58984375 6.36902344 2.4296875 5.80054688 1.234375 5.21484375 C-1.99057317 4.00354075 -2.93462957 3.70467754 -6 5 C-6.99 5.33 -7.98 5.66 -9 6 C-9.433125 6.86625 -9.433125 6.86625 -9.875 7.75 C-11.37489865 10.7497973 -13.60481332 12.71500351 -16 15 C-21.02268385 19.91902621 -25.89156249 24.86987499 -30.39453125 30.2734375 C-32.11365309 32.12222547 -33.9422984 33.54487913 -36 35 C-35.42110619 31.71245489 -34.45171589 30.06327505 -32.0625 27.75 C-31.53785156 27.22921875 -31.01320312 26.7084375 -30.47265625 26.171875 C-29 25 -29 25 -27 25 C-26.9071875 24.13375 -26.9071875 24.13375 -26.8125 23.25 C-26 21 -26 21 -23.7265625 19.203125 C-20.83934862 16.87019 -18.82420879 14.43498039 -16.5625 11.5 C-10.50472427 4.01274914 -10.50472427 4.01274914 -6 2 C-3.24017841 1.71346115 -0.78841543 1.80769549 2 2 C1.01 1.01 1.01 1.01 0 0 Z " fill="#187691" transform="translate(121,45)"/>
<path d="M0 0 C3.19105482 1.75833633 4.46492529 3.14874478 6.375 6.1875 C7.53287507 11.39793781 7.1712864 15.8553454 4.58984375 20.58203125 C3.12501736 22.7810023 1.61569361 24.90997432 0 27 C3.40627712 26.43129103 4.850494 25.45824128 7.05859375 22.83203125 C7.60966797 22.18556641 8.16074219 21.53910156 8.72851562 20.87304688 C9.29248047 20.19306641 9.85644531 19.51308594 10.4375 18.8125 C11.27764648 17.8215332 11.27764648 17.8215332 12.13476562 16.81054688 C13.76648687 14.88180286 15.38518614 12.94290941 17 11 C17.75434326 10.09580322 17.75434326 10.09580322 18.52392578 9.17333984 C19.68371671 7.78314311 20.84203717 6.39171981 22 5 C22 8.8445159 20.98337566 10.85272839 18.5 13.75 C17 15 17 15 15 15 C14.9175 15.5775 14.835 16.155 14.75 16.75 C13.77003812 19.68988565 12.2556135 20.86631156 10 23 C9.04160999 24.24995655 8.08328053 25.49995952 7.125 26.75 C4.78303337 29.55199579 4.43319034 29.9438457 0.625 30.4375 C-0.674375 30.2209375 -0.674375 30.2209375 -2 30 C-2.33 28.35 -2.66 26.7 -3 25 C-3.2475 25.639375 -3.495 26.27875 -3.75 26.9375 C-5 29 -5 29 -6.6171875 29.8515625 C-10.91298329 30.11916945 -14.65129515 27.38347746 -18.3359375 25.36132812 C-21.73927078 23.62192291 -23.49722967 22.88953383 -27.2890625 23.72265625 C-28.18367188 24.14417969 -29.07828125 24.56570312 -30 25 C-30.99 25.33 -31.98 25.66 -33 26 C-33 31.94 -33 37.88 -33 44 C-29.41125 45.794375 -29.41125 45.794375 -25.75 47.625 C-25.00331055 48.00865723 -24.25662109 48.39231445 -23.48730469 48.78759766 C-19.72765816 50.71405573 -19.72765816 50.71405573 -15.703125 50.2734375 C-15.14109375 49.85320312 -14.5790625 49.43296875 -14 49 C-13.01 48.67 -12.02 48.34 -11 48 C-11.33 49.32 -11.66 50.64 -12 52 C-12.99 52 -13.98 52 -15 52 C-15.33 52.99 -15.66 53.98 -16 55 C-18.98678436 53.7465576 -21.96283603 52.46941179 -24.9375 51.1875 C-25.78763672 50.83107422 -26.63777344 50.47464844 -27.51367188 50.10742188 C-28.32255859 49.75615234 -29.13144531 49.40488281 -29.96484375 49.04296875 C-30.7137085 48.72352295 -31.46257324 48.40407715 -32.23413086 48.07495117 C-34 47 -34 47 -35 44 C-36.46015291 44.28241641 -37.91809793 44.57626614 -39.375 44.875 C-40.59316406 45.11863281 -40.59316406 45.11863281 -41.8359375 45.3671875 C-44.18673923 45.86658932 -44.18673923 45.86658932 -46 48 C-46.66 47.34 -47.32 46.68 -48 46 C-45.66002906 44.11002347 -43.67307967 42.86269346 -40.875 41.6875 C-37.75202874 40.2327631 -37.75202874 40.2327631 -36.6875 37 C-36.460625 36.01 -36.23375 35.02 -36 34 C-35.67 33.01 -35.34 32.02 -35 31 C-35.0825 30.01 -35.165 29.02 -35.25 28 C-35.1675 27.01 -35.085 26.02 -35 25 C-32.625 23.4375 -32.625 23.4375 -30 22 C-27.127197 17.48559528 -27.81970468 12.15844951 -28 7 C-27.34 7 -26.68 7 -26 7 C-26 9.97 -26 12.94 -26 16 C-22.34898345 12.56374913 -19.40953215 8.97091281 -16.52734375 4.8671875 C-11.86134067 -0.8370311 -7.01701656 -0.93699034 0 0 Z M-15.30078125 12.60546875 C-16.77988816 14.68981941 -17.94830391 16.6777269 -19 19 C-17.421924 19.84324672 -15.8372958 20.67423918 -14.25 21.5 C-12.92742187 22.19609375 -12.92742187 22.19609375 -11.578125 22.90625 C-8.85303528 24.26036656 -8.85303528 24.26036656 -5 24 C-2.17101701 21.35402399 -0.36751177 17.9647184 1 14.375 C1 10.98870323 0.2477124 9.52867644 -2 7 C-8.74551214 4.09017123 -11.20425913 7.62364716 -15.30078125 12.60546875 Z " fill="#16728B" transform="translate(83,111)"/>
<path d="M0 0 C3.2830753 1.80904149 4.52119876 3.13359775 6.3125 6.375 C7.10339468 9.39477967 7.27632213 11.89137606 7 15 C4.8614515 17.1385485 3.86724686 17.42655063 1 18 C1.3403125 16.4221875 1.3403125 16.4221875 1.6875 14.8125 C2.2388262 11.10382142 2.2388262 11.10382142 1.0625 8.125 C-1.541127 5.44247522 -3.33207533 5.03393279 -7 4.8046875 C-10.35931669 5.13274577 -11.82660961 6.50699338 -14 9 C-15.25 11.91666667 -15.25 11.91666667 -16 15 C-16.65411685 16.67163195 -17.31653318 18.34015202 -18 20 C-18.66 20 -19.32 20 -20 20 C-20 20.66 -20 21.32 -20 22 C-21.11375 21.814375 -22.2275 21.62875 -23.375 21.4375 C-26.82568861 20.68319343 -26.82568861 20.68319343 -29 22 C-28.835 21.38125 -28.67 20.7625 -28.5 20.125 C-27.79924683 15.74529271 -27.92265749 11.42571011 -28 7 C-27.34 7 -26.68 7 -26 7 C-26 9.97 -26 12.94 -26 16 C-22.34898345 12.56374913 -19.40953215 8.97091281 -16.52734375 4.8671875 C-11.86134067 -0.8370311 -7.01701656 -0.93699034 0 0 Z " fill="#137998" transform="translate(83,111)"/>
<path d="M0 0 C0 0.99 0 1.98 0 3 C-2.5546875 4.82421875 -2.5546875 4.82421875 -5.875 6.6875 C-6.96554688 7.31011719 -8.05609375 7.93273437 -9.1796875 8.57421875 C-12 10 -12 10 -14 10 C-14.433125 10.928125 -14.433125 10.928125 -14.875 11.875 C-16 14 -16 14 -18 16 C-18.66 15.67 -19.32 15.34 -20 15 C-20.33 15.66 -20.66 16.32 -21 17 C-22.11297035 18.07670816 -23.26382344 19.11480853 -24.4375 20.125 C-25.05496094 20.66382812 -25.67242187 21.20265625 -26.30859375 21.7578125 C-28 23 -28 23 -30 23 C-30.2475 23.7425 -30.495 24.485 -30.75 25.25 C-32.11153526 28.24537757 -33.62032943 29.76455189 -36 32 C-36.53625 32.7425 -37.0725 33.485 -37.625 34.25 C-38.07875 34.8275 -38.5325 35.405 -39 36 C-39.66 36 -40.32 36 -41 36 C-41.103125 36.598125 -41.20625 37.19625 -41.3125 37.8125 C-42 40 -42 40 -43.3515625 41.23828125 C-45.632319 43.6757722 -46.70252931 46.33506551 -48.0625 49.375 C-48.56910156 50.49648438 -49.07570313 51.61796875 -49.59765625 52.7734375 C-51.38208441 56.87911344 -53.05695106 60.8188546 -54.0625 65.1875 C-55 69 -55 69 -56 71 C-56.66 71 -57.32 71 -58 71 C-58.22046032 72.96487937 -58.44073827 74.92977935 -58.66015625 76.89477539 C-58.84528391 78.55033162 -59.03148458 80.2057682 -59.21875 81.86108398 C-59.71233447 86.2585914 -60.14580594 90.65117395 -60.5 95.0625 C-60.7475 97.0115625 -60.7475 97.0115625 -61 99 C-61.99 99.495 -61.99 99.495 -63 100 C-64.36756791 76.02957352 -55.07106901 50.6172029 -40 32 C-39.34 32 -38.68 32 -38 32 C-37.7421875 31.42765625 -37.484375 30.8553125 -37.21875 30.265625 C-29.69528972 16.27970525 -13.39249623 7.44027568 0 0 Z " fill="#1A697C" transform="translate(63,10)"/>
<path d="M0 0 C2.97 0.495 2.97 0.495 6 1 C6 1.66 6 2.32 6 3 C6.99 3.33 7.98 3.66 9 4 C10.33333333 5.33333333 11.66666667 6.66666667 13 8 C13.66 8 14.32 8 15 8 C14.91621094 8.80824219 14.83242187 9.61648437 14.74609375 10.44921875 C14.64425781 11.51785156 14.54242188 12.58648437 14.4375 13.6875 C14.33308594 14.74324219 14.22867188 15.79898438 14.12109375 16.88671875 C14.00527079 19.86448957 14.31487584 22.11884875 15 25 C15.84428528 29.35722053 16.10778233 33.4373319 16.0625 37.875 C16.05347656 39.02742188 16.04445312 40.17984375 16.03515625 41.3671875 C16.02355469 42.23601562 16.01195312 43.10484375 16 44 C16.66 44 17.32 44 18 44 C18.0501123 44.72179443 18.10022461 45.44358887 18.15185547 46.18725586 C18.38306799 49.43812489 18.62883319 52.68773066 18.875 55.9375 C18.95363281 57.07380859 19.03226563 58.21011719 19.11328125 59.38085938 C19.23896484 61.00024414 19.23896484 61.00024414 19.3671875 62.65234375 C19.44050293 63.65257568 19.51381836 64.65280762 19.58935547 65.68334961 C19.79262451 66.83009155 19.79262451 66.83009155 20 68 C20.66 68.33 21.32 68.66 22 69 C21.34 69 20.68 69 20 69 C20.495 69.99 20.495 69.99 21 71 C21.50720195 78.35442821 20.09892842 83.85160737 16 90 C15.34 90 14.68 90 14 90 C14.28875 89.29875 14.5775 88.5975 14.875 87.875 C16.9172572 82.65589827 18.30338678 78.72015173 17.75 73.0625 C17.63914063 71.9075 17.52828125 70.7525 17.4140625 69.5625 C16.88068032 64.97340045 16.24363094 60.40258282 15.59765625 55.828125 C15.07200189 51.82568064 14.68416363 47.81604103 14.30859375 43.796875 C14.12369385 41.8331897 14.12369385 41.8331897 13.93505859 39.82983398 C13.68949622 37.20760413 13.45622126 34.58515946 13.22900391 31.96118164 C12.31861433 18.13661476 12.31861433 18.13661476 6.5625 6 C5.716875 5.34 4.87125 4.68 4 4 C2.66666667 2.66666667 1.33333333 1.33333333 0 0 Z " fill="#1B7089" transform="translate(174,44)"/>
<path d="M0 0 C2.5935911 3.01724891 3.42791549 5.13335433 3.8515625 9.0703125 C5.29328337 23.40214693 5.29328337 23.40214693 13.23828125 34.8671875 C14.60533203 35.92292969 14.60533203 35.92292969 16 37 C17.14176021 37.9580403 18.28092786 38.91917585 19.41796875 39.8828125 C25.24699274 44.72382635 30.96996867 49.04738684 38 52 C31.24291817 59.65044601 18.78045326 62.29362305 9 64 C7.00049134 64.04432983 4.99921745 64.05594276 3 64 C3 63.34 3 62.68 3 62 C4.05058594 61.82984375 5.10117188 61.6596875 6.18359375 61.484375 C13.30769822 60.27383712 19.90899428 59.11447592 26.3984375 55.76953125 C28 55 28 55 30 55 C29.62319858 52.42334323 29.27990468 51.25570731 27.328125 49.47265625 C26.64234375 49.00730469 25.9565625 48.54195312 25.25 48.0625 C21.77146069 45.67930227 18.9357778 43.03004589 16 40 C14.29419689 38.24753359 12.585883 36.49750741 10.875 34.75 C9.60269531 33.44289063 9.60269531 33.44289063 8.3046875 32.109375 C6.1052023 29.80882371 6.1052023 29.80882371 3 29 C3.01160156 28.21753906 3.02320313 27.43507812 3.03515625 26.62890625 C3.04417969 25.61699219 3.05320313 24.60507813 3.0625 23.5625 C3.07410156 22.55316406 3.08570313 21.54382813 3.09765625 20.50390625 C3.28612676 18.05978933 3.28612676 18.05978933 2 17 C1.599617 14.14471393 1.2481773 11.30263513 0.9375 8.4375 C0.84662109 7.63119141 0.75574219 6.82488281 0.66210938 5.99414062 C0.43752551 3.99652623 0.21826764 1.9983144 0 0 Z " fill="#196E84" transform="translate(125,160)"/>
<path d="M0 0 C0.66 0 1.32 0 2 0 C1.45276317 3.37462715 0.9451 5.08235 -1 8 C-0.401875 7.773125 0.19625 7.54625 0.8125 7.3125 C3 7 3 7 4.8125 8.1875 C6 10 6 10 5.6875 12.1875 C5.460625 12.785625 5.23375 13.38375 5 14 C5.66 14 6.32 14 7 14 C6.979375 15.19625 6.95875 16.3925 6.9375 17.625 C6.93117429 21.18004869 7.30111125 24.50555624 8 28 C4.07978863 31.3472574 0.01993606 33.83340052 -4.5 36.25 C-5.15097656 36.61351562 -5.80195312 36.97703125 -6.47265625 37.3515625 C-10.11686255 39.30986326 -12.83893669 40.48012269 -17 40 C-14.61823688 38.41215792 -12.33862088 37.09674803 -9.8046875 35.79296875 C-9.00675781 35.37080078 -8.20882812 34.94863281 -7.38671875 34.51367188 C-5.71092298 33.62886213 -4.02852903 32.7564389 -2.33984375 31.89648438 C-1.54449219 31.47044922 -0.74914062 31.04441406 0.0703125 30.60546875 C0.80008301 30.22543701 1.52985352 29.84540527 2.28173828 29.45385742 C4.60824308 27.48535273 4.73803836 25.98123416 5 23 C4.48839871 20.40422198 4.48839871 20.40422198 3.5625 17.875 C2.58400512 14.98778192 2 13.07382954 2 10 C-0.8783278 11.63655546 -3.0971502 13.26497056 -5 16 C-5.06943799 18.88480572 -5.06943799 18.88480572 -4.5 21.9375 C-3.63346263 27.41647251 -3.63346263 27.41647251 -5.46484375 30.33203125 C-7.23184974 32.05005094 -8.99011717 33.57654183 -11 35 C-11.99 34.67 -12.98 34.34 -14 34 C-13.48308594 33.61070312 -12.96617188 33.22140625 -12.43359375 32.8203125 C-10.27548377 30.98739717 -8.58768406 29.35227927 -7 27 C-6.81256575 24.29498301 -7.17149277 22.02467986 -7.66015625 19.36328125 C-8.12182564 16.15282168 -7.26098358 13.94229503 -6 11 C-5.65023242 9.67088318 -5.30903983 8.33917261 -5 7 C-4.34 7 -3.68 7 -3 7 C-1.79371992 4.66785852 -0.8345262 2.50357861 0 0 Z " fill="#19718E" transform="translate(79,148)"/>
<path d="M0 0 C6.30027021 0.48463617 12.54504912 3.21226689 16.7578125 7.99609375 C18.29825022 10.48113951 18.23930104 12.12838757 18 15 C16 14 16 14 14.875 10.9375 C14.58625 9.968125 14.2975 8.99875 14 8 C14 8.66 14 9.32 14 10 C14 11.66666667 14 13.33333333 14 15 C13.38125 15.2475 12.7625 15.495 12.125 15.75 C9.62181694 17.22246063 9.16954719 18.41028837 8 21 C7.01 21.495 7.01 21.495 6 22 C7.63265306 17.35321821 7.63265306 17.35321821 9.625 15.4375 C11.4608151 13.8497769 11.4608151 13.8497769 11 10 C8.9237343 8.96486753 6.83868521 7.94733789 4.75 6.9375 C3.58984375 6.36902344 2.4296875 5.80054688 1.234375 5.21484375 C-1.99057317 4.00354075 -2.93462957 3.70467754 -6 5 C-6.99 5.33 -7.98 5.66 -9 6 C-9.433125 6.86625 -9.433125 6.86625 -9.875 7.75 C-11.37489865 10.7497973 -13.60481332 12.71500351 -16 15 C-21.02268385 19.91902621 -25.89156249 24.86987499 -30.39453125 30.2734375 C-32.11365309 32.12222547 -33.9422984 33.54487913 -36 35 C-35.42110619 31.71245489 -34.45171589 30.06327505 -32.0625 27.75 C-31.53785156 27.22921875 -31.01320313 26.7084375 -30.47265625 26.171875 C-29 25 -29 25 -27 25 C-26.938125 24.4225 -26.87625 23.845 -26.8125 23.25 C-26 21 -26 21 -23.7265625 19.203125 C-20.83934862 16.87019 -18.82420879 14.43498039 -16.5625 11.5 C-10.50472427 4.01274914 -10.50472427 4.01274914 -6 2 C-3.24017841 1.71346115 -0.78841543 1.80769549 2 2 C1.34 1.34 0.68 0.68 0 0 Z " fill="#1A7088" transform="translate(121,45)"/>
<path d="M0 0 C4.91511194 1.34048507 4.91511194 1.34048507 6.4375 3.9375 C6.9375 6.8125 6.9375 6.8125 6.4375 9.9375 C4.3125 12.875 4.3125 12.875 1.4375 14.9375 C-1.625 15.0625 -1.625 15.0625 -4.5625 13.9375 C-7 11.6875 -7 11.6875 -8.5625 8.9375 C-8.5625 5.68589677 -7.76721813 4.23670342 -5.9375 1.5625 C-3.5625 -0.0625 -3.5625 -0.0625 0 0 Z " fill="#12728A" transform="translate(63.5625,142.0625)"/>
<path d="M0 0 C1.15039081 1.15039081 2.30044707 2.30111734 3.44921875 3.453125 C4.50916662 4.51040298 5.57454233 5.56225995 6.64453125 6.609375 C18.31700241 18.09740531 18.31700241 18.09740531 21 24 C20.01 24.99 19.02 25.98 18 27 C14.16056297 24.91554207 11.54589696 22.66712081 8.6875 19.375 C7.91921875 18.4984375 7.1509375 17.621875 6.359375 16.71875 C5.58078125 15.8215625 4.8021875 14.924375 4 14 C2.48108379 12.28996188 0.96038967 10.58150048 -0.5625 8.875 C-1.70865596 7.5836196 -2.85461745 6.29206642 -4 5 C-3.34 4.67 -2.68 4.34 -2 4 C0.33333333 6.33333333 2.66666667 8.66666667 5 11 C3.72375881 7.36526922 3.72375881 7.36526922 1.375 4.375 C0.92125 3.92125 0.4675 3.4675 0 3 C0 2.01 0 1.02 0 0 Z " fill="#1D7793" transform="translate(168,171)"/>
<path d="M0 0 C0.99 0.495 0.99 0.495 2 1 C2 5.29 2 9.58 2 14 C2.66 14 3.32 14 4 14 C4.17015625 15.08539063 4.3403125 16.17078125 4.515625 17.2890625 C4.75966039 18.73450289 5.00449462 20.17980856 5.25 21.625 C5.35957031 22.33785156 5.46914062 23.05070312 5.58203125 23.78515625 C6.44338057 28.72658127 8.0162989 31.87512238 11 36 C11.69730806 38.3243602 12.36912152 40.65673706 13 43 C13.66 43.66 14.32 44.32 15 45 C15.625 47.625 15.625 47.625 16 50 C16.66 50 17.32 50 18 50 C18.3403125 50.68964844 18.680625 51.37929687 19.03125 52.08984375 C22.5715372 58.95385803 26.61947715 64.46925951 32 70 C31.01 70.99 31.01 70.99 30 72 C14.2811739 52.72710109 -0.4612 29.97800013 -0.0625 4.0625 C-0.05347656 3.29035156 -0.04445312 2.51820312 -0.03515625 1.72265625 C-0.02355469 1.15417969 -0.01195312 0.58570312 0 0 Z " fill="#1A6B81" transform="translate(0,119)"/>
<path d="M0 0 C4.63754464 3.22971859 7.1452474 6.87501502 10 11.625 C10.43860352 12.34647217 10.87720703 13.06794434 11.32910156 13.8112793 C12.56702401 15.86611073 13.78692999 17.93042581 15 20 C15.51046875 20.85980469 16.0209375 21.71960938 16.546875 22.60546875 C22.63120399 33.76665668 27.25859516 48.19131475 27.0625 60.9375 C27.05347656 61.70964844 27.04445312 62.48179688 27.03515625 63.27734375 C27.02355469 63.84582031 27.01195312 64.41429688 27 65 C26.01 65.495 26.01 65.495 25 66 C24.95101562 65.04738281 24.90203125 64.09476562 24.8515625 63.11328125 C24.77679688 61.85902344 24.70203125 60.60476562 24.625 59.3125 C24.55539063 58.07113281 24.48578125 56.82976562 24.4140625 55.55078125 C24.03302806 52.28323119 23.30203032 49.98206944 22 47 C21.875 44.1875 21.875 44.1875 22 42 C21.34 42 20.68 42 20 42 C18.79727181 39.59454362 18.89928528 38.05003047 18.9375 35.375 C18.94652344 34.55773437 18.95554688 33.74046875 18.96484375 32.8984375 C18.97644531 32.27195313 18.98804688 31.64546875 19 31 C18.34 31 17.68 31 17 31 C16.58427734 30.15115234 16.58427734 30.15115234 16.16015625 29.28515625 C15.79792969 28.55167969 15.43570313 27.81820312 15.0625 27.0625 C14.70285156 26.33160156 14.34320313 25.60070312 13.97265625 24.84765625 C13.13628173 23.03750973 13.13628173 23.03750973 12 22 C11.95936168 20.33382885 11.957279 18.66611905 12 17 C11.34 17 10.68 17 10 17 C8.6328125 15.2421875 8.6328125 15.2421875 7.125 12.875 C6.5990625 12.05644531 6.073125 11.23789062 5.53125 10.39453125 C5.0259375 9.60433594 4.520625 8.81414063 4 8 C3.21088164 6.8524102 2.4196678 5.70625401 1.625 4.5625 C0 2 0 2 0 0 Z " fill="#146C85" transform="translate(197,39)"/>
<path d="M0 0 C7.50931455 1.9172718 14.75803759 4.24049015 22 7 C19.68719735 8.44810616 18.58355661 9.12565635 15.859375 8.5390625 C15.16328125 8.23742187 14.4671875 7.93578125 13.75 7.625 C12.69039062 7.18027344 12.69039062 7.18027344 11.609375 6.7265625 C10.81273437 6.36691406 10.81273437 6.36691406 10 6 C10.66 7.32 11.32 8.64 12 10 C11.35933594 9.79503906 10.71867187 9.59007813 10.05859375 9.37890625 C9.19363281 9.10949219 8.32867187 8.84007813 7.4375 8.5625 C6.59058594 8.29566406 5.74367188 8.02882813 4.87109375 7.75390625 C1.59992938 6.89494744 -1.64753386 6.4268282 -5 6 C-6.4654862 7.89065812 -7.92234703 9.78701997 -9.375 11.6875 C-9.7875 12.21794922 -10.2 12.74839844 -10.625 13.29492188 C-12.99093582 16.40498266 -14.74855056 19.29378434 -16 23 C-16.66 21.68 -17.32 20.36 -18 19 C-17.60167969 18.49210937 -17.20335937 17.98421875 -16.79296875 17.4609375 C-14.33627885 14.26903383 -12.15549971 11.31698018 -10.375 7.6875 C-8.85057781 4.70794754 -7.91412593 3.60226855 -5 2 C-2.203125 2.36328125 -2.203125 2.36328125 0.75 3.3125 C2.22726563 3.77076172 2.22726563 3.77076172 3.734375 4.23828125 C4.85585937 4.61533203 4.85585937 4.61533203 6 5 C4.02 4.01 2.04 3.02 0 2 C0 1.34 0 0.68 0 0 Z " fill="#177086" transform="translate(74,95)"/>
<path d="M0 0 C1.83198438 3.66396876 2.38935663 5.69086575 2.8515625 9.640625 C2.98046875 10.71054688 3.109375 11.78046875 3.2421875 12.8828125 C3.36851562 13.99398437 3.49484375 15.10515625 3.625 16.25 C3.7590625 17.37664062 3.893125 18.50328125 4.03125 19.6640625 C4.36083514 22.44199438 4.68349064 25.22055304 5 28 C6.32 28.33 7.64 28.66 9 29 C11.27994301 35.83982904 12.07048984 42.87045933 13 50 C14.15628906 49.96519531 14.15628906 49.96519531 15.3359375 49.9296875 C16.33882812 49.91164062 17.34171875 49.89359375 18.375 49.875 C19.37273437 49.85179687 20.37046875 49.82859375 21.3984375 49.8046875 C24 50 24 50 26 52 C21.38 52.33 16.76 52.66 12 53 C10.32942937 48.82357344 9.75131219 47.33104148 9.875 43.1875 C9.89304688 42.39730469 9.91109375 41.60710937 9.9296875 40.79296875 C9.96449219 39.90544922 9.96449219 39.90544922 10 39 C9.34 39 8.68 39 8 39 C7.67 36.03 7.34 33.06 7 30 C6.01 30 5.02 30 4 30 C1.85663839 26.5233662 1.78722374 23.78770805 1.875 19.75 C1.89304688 18.67234375 1.91109375 17.5946875 1.9296875 16.484375 C1.95289063 15.66453125 1.97609375 14.8446875 2 14 C1.34 14 0.68 14 0 14 C0 9.38 0 4.76 0 0 Z " fill="#176E85" transform="translate(127,105)"/>
<path d="M0 0 C2.37753415 2.37753415 2.32049854 2.9337631 2.375 6.1875 C2.05499997 19.30750111 -3.53830144 31.32485223 -9 43 C-13.1789783 41.16299079 -14.5729549 38.86810312 -17 35 C-18.31543279 33.31916921 -19.64316249 31.6475884 -21 30 C-20.01 30 -19.02 30 -18 30 C-16.28859531 31.96185416 -14.62126675 33.96302383 -13 36 C-12.34 36.33 -11.68 36.66 -11 37 C-11 37.66 -11 38.32 -11 39 C-10.34 39 -9.68 39 -9 39 C-8.81824219 38.39414063 -8.63648438 37.78828125 -8.44921875 37.1640625 C-8.19785156 36.32617188 -7.94648438 35.48828125 -7.6875 34.625 C-7.41421875 33.71105469 -7.1409375 32.79710937 -6.859375 31.85546875 C-6.31405625 30.04352328 -5.76268501 28.23337953 -5.203125 26.42578125 C-2.49873778 17.6365228 -0.72811916 9.1781336 0 0 Z " fill="#1D637A" transform="translate(222,120)"/>
<path d="M0 0 C-3.70874111 1.23624704 -5.24623143 0.23900743 -8.75390625 -1.1640625 C-13.74065395 -3.0199999 -18.55416905 -4.02331985 -23.875 -3.9375 C-27 -4 -27 -4 -28.4309082 -5.45825195 C-30.39712417 -7.39020369 -31.51764025 -7.48034981 -34.23046875 -7.73046875 C-35.03291016 -7.81103516 -35.83535156 -7.89160156 -36.66210938 -7.97460938 C-37.49548828 -8.04486328 -38.32886719 -8.11511719 -39.1875 -8.1875 C-40.03248047 -8.26935547 -40.87746094 -8.35121094 -41.74804688 -8.43554688 C-43.83092268 -8.63559709 -45.91535003 -8.81937284 -48 -9 C-48 -9.33 -48 -9.66 -48 -10 C-31.75883331 -13.32205682 -14.57074514 -6.84612518 0 0 Z " fill="#1B758D" transform="translate(163,11)"/>
<path d="M0 0 C0.66 0 1.32 0 2 0 C2.66 2.97 3.32 5.94 4 9 C4.33 9 4.66 9 5 9 C6.10228696 13.40914783 6.07654536 17.48382401 6 22 C5.67 21.01 5.34 20.02 5 19 C4.34 19 3.68 19 3 19 C3 21.64 3 24.28 3 27 C2.34 27.33 1.68 27.66 1 28 C0.00749455 22.29309366 -0.10477512 16.78591511 0 11 C-0.66 10.67 -1.32 10.34 -2 10 C-1.85950482 8.52031676 -1.71245174 7.04125484 -1.5625 5.5625 C-1.48128906 4.73878906 -1.40007812 3.91507812 -1.31640625 3.06640625 C-1 1 -1 1 0 0 Z " fill="#1A7690" transform="translate(145,64)"/>
<path d="M0 0 C-0.99 0.66 -1.98 1.32 -3 2 C-4.2065625 1.7525 -4.2065625 1.7525 -5.4375 1.5 C-7.95997327 0.79634559 -7.95997327 0.79634559 -10.1875 1.6875 C-12.3653504 3.26456408 -12.83220047 4.59570685 -14 7 C-15.62935045 8.72809896 -17.28330993 10.36228599 -19 12 C-24.02268385 16.91902621 -28.89156249 21.86987499 -33.39453125 27.2734375 C-35.11365309 29.12222547 -36.9422984 30.54487913 -39 32 C-38.42110619 28.71245489 -37.45171589 27.06327505 -35.0625 24.75 C-34.53785156 24.22921875 -34.01320313 23.7084375 -33.47265625 23.171875 C-32 22 -32 22 -30 22 C-29.938125 21.4225 -29.87625 20.845 -29.8125 20.25 C-29 18 -29 18 -26.7265625 16.203125 C-23.83934862 13.87019 -21.82420879 11.43498039 -19.5625 8.5 C-13.37497923 0.87518034 -9.98821931 -2.04203595 0 0 Z " fill="#146175" transform="translate(124,48)"/>
<path d="M0 0 C0 0.33 0 0.66 0 1 C-1.19496094 1.04898437 -2.38992187 1.09796875 -3.62109375 1.1484375 C-13.96914279 1.61613364 -23.23818631 2.40432631 -32.94921875 6.19921875 C-35.22489167 7.08781484 -37.5093349 7.93514837 -39.8125 8.75 C-40.54082031 9.01296875 -41.26914063 9.2759375 -42.01953125 9.546875 C-44 10 -44 10 -47 9 C-34.17540171 0.45026781 -14.97631502 -3.15290843 0 0 Z " fill="#186D85" transform="translate(112,1)"/>
<path d="M0 0 C0.66 0.33 1.32 0.66 2 1 C1.01386719 2.46373047 1.01386719 2.46373047 0.0078125 3.95703125 C-2.45124246 8.26091908 -2.40590074 11.83983423 -2.125 16.6875 C-1.90143746 21.47753436 -1.77630482 24.55260963 -4 29 C-4.33 24.71 -4.66 20.42 -5 16 C-6.32 16.33 -7.64 16.66 -9 17 C-8.67 13.7 -8.34 10.4 -8 7 C-6.68 7 -5.36 7 -4 7 C-3.71125 6.21625 -3.4225 5.4325 -3.125 4.625 C-2 2 -2 2 0 0 Z " fill="#136D92" transform="translate(152,48)"/>
<path d="M0 0 C5.15285865 0.45855002 8.49888981 2.28633348 12.5625 5.3125 C13.16022217 5.74892822 13.75794434 6.18535645 14.3737793 6.63500977 C18.89326265 10.00757266 23.15160853 13.63380667 27.3125 17.4375 C27.86945557 17.94514893 28.42641113 18.45279785 29.00024414 18.97583008 C31.4616958 21.29000546 32.91488967 22.74466901 34 26 C28.38823989 23.6257938 24.24285177 19.24285177 20 15 C19.34 14.67 18.68 14.34 18 14 C18 13.34 18 12.68 18 12 C17.34 12 16.68 12 16 12 C16 11.34 16 10.68 16 10 C15.29875 9.7525 14.5975 9.505 13.875 9.25 C10.60485452 7.82819762 7.858878 6.12753712 5 4 C5 3.34 5 2.68 5 2 C3.35 1.67 1.7 1.34 0 1 C0 0.67 0 0.34 0 0 Z " fill="#1F7085" transform="translate(163,13)"/>
<path d="M0 0 C0.33 0 0.66 0 1 0 C1.20140476 3.62528568 0.85776765 5.86501708 -1 9 C-1.66 9 -2.32 9 -3 9 C-3.22046032 10.96487937 -3.44073827 12.92977935 -3.66015625 14.89477539 C-3.84528391 16.55033162 -4.03148458 18.2057682 -4.21875 19.86108398 C-4.71233447 24.2585914 -5.14580594 28.65117395 -5.5 33.0625 C-5.665 34.361875 -5.83 35.66125 -6 37 C-6.99 37.495 -6.99 37.495 -8 38 C-8.70989143 25.55718074 -6.98169013 13.5117434 -2 2 C-1.34 2 -0.68 2 0 2 C0 1.34 0 0.68 0 0 Z " fill="#126984" transform="translate(8,72)"/>
<path d="M0 0 C0.66 0.33 1.32 0.66 2 1 C1.67 1.99 1.34 2.98 1 4 C1.99 4.33 2.98 4.66 4 5 C3.23816406 5.88300781 2.47632812 6.76601562 1.69140625 7.67578125 C-4.64468671 15.03495355 -10.89560118 22.44657722 -17 30 C-17.33 29.01 -17.66 28.02 -18 27 C-16.85546875 25.17578125 -16.85546875 25.17578125 -15.1875 23.3125 C-14.64480469 22.68988281 -14.10210937 22.06726563 -13.54296875 21.42578125 C-12 20 -12 20 -10 20 C-9.731875 19.236875 -9.46375 18.47375 -9.1875 17.6875 C-8.03396359 15.07686496 -7.01370135 13.92614911 -5 12 C-4.67 11.01 -4.34 10.02 -4 9 C-2 7 -2 7 0 6 C-1.32 5.34 -2.64 4.68 -4 4 C-2.68 2.68 -1.36 1.36 0 0 Z " fill="#197189" transform="translate(124,69)"/>
<path d="M0 0 C3 2 3 2 5 4 C4.67028521 7.29714793 4.3773161 8.6226839 2 11 C-1 10.9375 -1 10.9375 -4 10 C-5.375 7.4375 -5.375 7.4375 -6 5 C-4.10646634 3.10646634 -2.15473199 1.5801368 0 0 Z " fill="#0F82A5" transform="translate(63,144)"/>
<path d="M0 0 C1.32 0.66 2.64 1.32 4 2 C-5.44622732 9.14849635 -19.21007902 13.34829899 -31 13 C-31 12.34 -31 11.68 -31 11 C-29.94941406 10.82984375 -28.89882812 10.6596875 -27.81640625 10.484375 C-17.49224013 8.73109039 -17.49224013 8.73109039 -7.796875 4.8671875 C-6 4 -6 4 -3.890625 3.5703125 C-1.60724804 3.10030461 -1.60724804 3.10030461 0 0 Z " fill="#14677F" transform="translate(159,211)"/>
<path d="M0 0 C2 3 2 3 2 6 C1.34 6 0.68 6 0 6 C0.33 6.66 0.66 7.32 1 8 C1.99 8.33 2.98 8.66 4 9 C5.38576923 10.62332967 6.72641268 12.28724465 8 14 C7.67 14.66 7.34 15.32 7 16 C5.49428343 14.88266271 3.99555708 13.75589965 2.5 12.625 C1.6646875 11.99851563 0.829375 11.37203125 -0.03125 10.7265625 C-0.6809375 10.15679687 -1.330625 9.58703125 -2 9 C-2 8.34 -2 7.68 -2 7 C-2.99 6.67 -3.98 6.34 -5 6 C-5.625 4.0625 -5.625 4.0625 -6 2 C-6.33 1.34 -6.66 0.68 -7 0 C-3.86559131 -1.0448029 -2.97903963 -1.15317663 0 0 Z " fill="#137C9E" transform="translate(36,186)"/>
<path d="M0 0 C3.57530172 2.56688329 4.95668778 3.8267511 6 8 C8.5827607 10.43517437 10.99649479 11.99828176 14.1875 13.5625 C17 15 17 15 19 18 C17.8828125 21.13671875 17.8828125 21.13671875 16.125 24.6875 C15.55007812 25.86699219 14.97515625 27.04648438 14.3828125 28.26171875 C13.92648438 29.16535156 13.47015625 30.06898438 13 31 C12.34 30.01 11.68 29.02 11 28 C11.97542336 24.45300595 13.38829197 22.49815551 16 20 C16.33 19.01 16.66 18.02 17 17 C16.29875 16.7525 15.5975 16.505 14.875 16.25 C8.20602659 13.35044634 3.63675508 9.28049548 0 3 C0 2.01 0 1.02 0 0 Z " fill="#1781A4" transform="translate(153,125)"/>
<path d="M0 0 C0.33 1.32 0.66 2.64 1 4 C-3.14683305 5.38227768 -7.3069608 5.38541946 -11.63867188 5.60546875 C-15.44515217 5.76700335 -15.44515217 5.76700335 -19 7 C-21.3329866 7.04022391 -23.66706666 7.04320247 -26 7 C-26 6.34 -26 5.68 -26 5 C-20.72576222 3.33040685 -15.68368036 2.48568798 -10.1875 1.9375 C-4.93435173 1.58448255 -4.93435173 1.58448255 0 0 Z " fill="#137EA0" transform="translate(163,154)"/>
<path d="M0 0 C3.66881155 0.70554068 6.70450534 2.27735506 10 4 C10 4.66 10 5.32 10 6 C10.515625 6.0825 11.03125 6.165 11.5625 6.25 C14.38094959 7.11721526 16.72256152 8.51377568 19.25 10.01171875 C21.42121014 11.23787091 23.65914184 12.14877885 26 13 C26 13.66 26 14.32 26 15 C16.64273099 13.66324728 6.96173118 7.2676613 0 1 C0 0.67 0 0.34 0 0 Z " fill="#1B6E84" transform="translate(44,202)"/>
<path d="M0 0 C3.2830753 1.80904149 4.52119876 3.13359775 6.3125 6.375 C7.08971478 9.34254735 7.14209627 11.94493013 7 15 C6.34 15 5.68 15 5 15 C4.89042969 14.38511719 4.78085938 13.77023438 4.66796875 13.13671875 C4.50941406 12.32847656 4.35085937 11.52023438 4.1875 10.6875 C4.03667969 9.88699219 3.88585937 9.08648437 3.73046875 8.26171875 C2.88499384 5.64391142 2.25872084 4.5706337 0 3 C-2.63517658 2.52448877 -2.63517658 2.52448877 -5.5 2.625 C-6.4590625 2.61726563 -7.418125 2.60953125 -8.40625 2.6015625 C-11.33081505 3.05081797 -12.207335 3.71071834 -14 6 C-14.33 5.01 -14.66 4.02 -15 3 C-10.42340518 -1.05970882 -5.85296324 -0.78155296 0 0 Z " fill="#187088" transform="translate(83,111)"/>
<path d="M0 0 C0 0.99 0 1.98 0 3 C-2.5546875 4.82421875 -2.5546875 4.82421875 -5.875 6.6875 C-7.51082031 7.62142578 -7.51082031 7.62142578 -9.1796875 8.57421875 C-12 10 -12 10 -14 10 C-14.433125 10.928125 -14.433125 10.928125 -14.875 11.875 C-16 14 -16 14 -18 16 C-18.66 15.67 -19.32 15.34 -20 15 C-20.33 15.66 -20.66 16.32 -21 17 C-22.64363134 17.72159424 -24.31050386 18.39351421 -26 19 C-22.4775925 14.38763999 -19.06551895 11.37574904 -14.125 8.375 C-13.53847656 8.00632812 -12.95195313 7.63765625 -12.34765625 7.2578125 C-8.29404311 4.72764517 -4.15954799 2.35104886 0 0 Z " fill="#206B7D" transform="translate(63,10)"/>
<path d="M0 0 C1.051875 1.1446875 1.051875 1.1446875 2.125 2.3125 C6.99620612 6.86601876 11.03207476 8.50603343 17.609375 8.3046875 C21.60661187 7.79523574 25.26877831 6.48190365 29 5 C27.77065985 8.68802044 26.06140622 9.72356973 23 12 C22.67 11.34 22.34 10.68 22 10 C20.58847656 10.06960937 20.58847656 10.06960937 19.1484375 10.140625 C7.70667082 10.47227041 7.70667082 10.47227041 4.3125 8.25 C2.2739127 6.26650965 0.53711282 4.39106439 -1 2 C-0.67 1.34 -0.34 0.68 0 0 Z " fill="#267C92" transform="translate(158,129)"/>
<path d="M0 0 C1.49600972 2.73743667 2.33085347 5.07003102 2.78125 8.15234375 C2.90113281 8.92900391 3.02101562 9.70566406 3.14453125 10.50585938 C3.32048828 11.70952148 3.32048828 11.70952148 3.5 12.9375 C4.54308634 20.15483356 4.54308634 20.15483356 7 27 C6.34 27 5.68 27 5 27 C4.34 27.99 3.68 28.98 3 30 C0.96022967 19.86185582 -0.48741178 10.38006571 0 0 Z " fill="#1A6F89" transform="translate(29,149)"/>
<path d="M0 0 C0.33 0.99 0.66 1.98 1 3 C-0.29327628 5.02613283 -1.6296945 7.02514795 -3 9 C-3.76939681 11.22602615 -3.76939681 11.22602615 -4 13 C-9.61925626 12.59862455 -12.08656763 10.82025541 -16 7 C-16 6.34 -16 5.68 -16 5 C-15.0925 5.309375 -14.185 5.61875 -13.25 5.9375 C-10.86182795 6.71824855 -8.43753666 7.39061584 -6 8 C-4.02 5.36 -2.04 2.72 0 0 Z " fill="#14708B" transform="translate(82,128)"/>
<path d="M0 0 C0.66 0.33 1.32 0.66 2 1 C0.98873047 1.81017578 0.98873047 1.81017578 -0.04296875 2.63671875 C-2.3082076 4.84442701 -2.3082076 4.84442701 -1.92578125 7.76953125 C-1.62220703 9.27580078 -1.62220703 9.27580078 -1.3125 10.8125 C-0.59332664 16.35556259 -0.59332664 16.35556259 -2.4765625 19.33984375 C-4.2388445 21.05648897 -5.99364527 22.57904054 -8 24 C-8.99 23.67 -9.98 23.34 -11 23 C-10.48308594 22.61070312 -9.96617188 22.22140625 -9.43359375 21.8203125 C-7.27327023 19.98551719 -5.58470248 18.35823799 -4 16 C-3.85248474 13.28571927 -4.23137709 10.9761178 -4.72265625 8.30859375 C-5 6 -5 6 -3.6875 2.9375 C-2 1 -2 1 0 0 Z " fill="#186A85" transform="translate(76,159)"/>
<path d="M0 0 C1.85100677 2.17292099 2.92736667 3.59532858 3.4375 6.4375 C3.84556866 9.20994359 3.84556866 9.20994359 6.125 11.625 C6.74375 12.40875 7.3625 13.1925 8 14 C7.67 14.99 7.34 15.98 7 17 C5.29115995 15.37660195 3.62553283 13.70680947 2 12 C2 11.34 2 10.68 2 10 C0.68 9.34 -0.64 8.68 -2 8 C-2 5.69 -2 3.38 -2 1 C-1.34 0.67 -0.68 0.34 0 0 Z " fill="#15779B" transform="translate(166,166)"/>
<path d="M0 0 C4.53891363 1.39658881 8.63720632 3.23169166 12.8515625 5.390625 C15.01392327 6.23940514 15.01392327 6.23940514 17.0859375 5.171875 C17.71757813 4.78515625 18.34921875 4.3984375 19 4 C19.99 3.67 20.98 3.34 22 3 C21.67 4.32 21.34 5.64 21 7 C20.01 7 19.02 7 18 7 C17.67 7.99 17.34 8.98 17 10 C14.34813711 8.90875992 11.70415172 7.80296381 9.0625 6.6875 C8.30775391 6.37876953 7.55300781 6.07003906 6.77539062 5.75195312 C6.05673828 5.44580078 5.33808594 5.13964844 4.59765625 4.82421875 C3.93258057 4.54666748 3.26750488 4.26911621 2.58227539 3.9831543 C1 3 1 3 0 0 Z " fill="#16697D" transform="translate(50,156)"/>
<path d="M0 0 C0 3 0 3 -1 5 C-1.66 5 -2.32 5 -3 5 C-3.0825 5.556875 -3.165 6.11375 -3.25 6.6875 C-4.22701017 9.69994803 -5.97374596 11.59382333 -8 14 C-8.33 14.66 -8.66 15.32 -9 16 C-9.66 16 -10.32 16 -11 16 C-11.33 16.99 -11.66 17.98 -12 19 C-12.99 19.33 -13.98 19.66 -15 20 C-13.68122162 15.31101021 -10.87659078 12.44196296 -7.67578125 8.9296875 C-5.80241677 6.77247992 -4.44524486 4.45691626 -3 2 C-2.01 1.34 -1.02 0.68 0 0 Z " fill="#157F9F" transform="translate(123,73)"/>
<path d="M0 0 C0.66 0.99 1.32 1.98 2 3 C5.56769552 3.73606499 5.56769552 3.73606499 9 4 C6.50590939 5.57035335 5.29556584 6.0274945 2.3125 5.75 C1.1678125 5.37875 1.1678125 5.37875 0 5 C-0.33 4.34 -0.66 3.68 -1 3 C-2.83528863 2.53272148 -2.83528863 2.53272148 -5.03515625 2.3671875 C-6.24848633 2.24150391 -6.24848633 2.24150391 -7.48632812 2.11328125 C-8.33646484 2.03464844 -9.18660156 1.95601563 -10.0625 1.875 C-11.34350586 1.74544922 -11.34350586 1.74544922 -12.65039062 1.61328125 C-14.76610633 1.40052772 -16.88296524 1.19920047 -19 1 C-19 0.67 -19 0.34 -19 0 C-12.72398226 -1.2837309 -6.28517981 -1.33524306 0 0 Z " fill="#127492" transform="translate(134,1)"/>
<path d="M0 0 C2 2 2 2 2.125 4.625 C2.08375 5.40875 2.0425 6.1925 2 7 C1.278125 6.175 0.55625 5.35 -0.1875 4.5 C-2.71826434 1.87920252 -2.71826434 1.87920252 -5.5 1.3125 C-9.36377047 2.37503688 -10.66875304 4.80286131 -13 8 C-13.33 6.68 -13.66 5.36 -14 4 C-9.10703528 -1.01528884 -6.83688123 -1.70922031 0 0 Z " fill="#166A80" transform="translate(82,116)"/>
<path d="M0 0 C0.66 0 1.32 0 2 0 C2.66 4.62 3.32 9.24 4 14 C2.68 13.67 1.36 13.34 0 13 C0 12.34 0 11.68 0 11 C-0.66 10.67 -1.32 10.34 -2 10 C-1.85950482 8.52031676 -1.71245174 7.04125484 -1.5625 5.5625 C-1.48128906 4.73878906 -1.40007812 3.91507812 -1.31640625 3.06640625 C-1 1 -1 1 0 0 Z " fill="#137A9D" transform="translate(145,64)"/>
<path d="M0 0 C1.03060547 0.32484375 1.03060547 0.32484375 2.08203125 0.65625 C2.98308594 0.9346875 3.88414063 1.213125 4.8125 1.5 C5.70582031 1.7784375 6.59914063 2.056875 7.51953125 2.34375 C10.05573395 3.12788351 10.05573395 3.12788351 13 3 C13.33 2.34 13.66 1.68 14 1 C15.32 1.33 16.64 1.66 18 2 C18 2.66 18 3.32 18 4 C15.4838288 5.64518886 14.22534416 6.02003059 11.1875 5.75 C10.135625 5.5025 9.08375 5.255 8 5 C6.741875 4.71125 5.48375 4.4225 4.1875 4.125 C3.135625 3.75375 2.08375 3.3825 1 3 C0.67 2.01 0.34 1.02 0 0 Z " fill="#1682A2" transform="translate(83,100)"/>
<path d="M0 0 C0.99 0.33 1.98 0.66 3 1 C2.34 2.65 1.68 4.3 1 6 C3.97 6.33 6.94 6.66 10 7 C10 7.99 10 8.98 10 10 C9.01 9.67 8.02 9.34 7 9 C4.94106379 8.77674186 2.87766347 8.59294241 0.8125 8.4375 C-0.27417969 8.35371094 -1.36085937 8.26992187 -2.48046875 8.18359375 C-3.31191406 8.12300781 -4.14335937 8.06242188 -5 8 C-4.34 7.67 -3.68 7.34 -3 7 C-2.67 6.01 -2.34 5.02 -2 4 C-1.34 4 -0.68 4 0 4 C0 2.68 0 1.36 0 0 Z " fill="#12789D" transform="translate(186,133)"/>
<path d="M0 0 C1.14388188 1.14388188 2.28680516 2.28873329 3.42578125 3.4375 C4.55383978 4.55716107 5.69921984 5.65947471 6.85546875 6.75 C7.48066406 7.348125 8.10585937 7.94625 8.75 8.5625 C9.34296875 9.12066406 9.9359375 9.67882812 10.546875 10.25390625 C12.14508731 12.17433878 12.59420545 13.55989329 13 16 C9.23856519 13.65955167 6.45850928 11.68776393 4 8 C3.278125 7.154375 2.55625 6.30875 1.8125 5.4375 C0 3 0 3 0 0 Z " fill="#1B6F86" transform="translate(168,171)"/>
<path d="M0 0 C7.48052834 -0.44219872 12.96213872 -0.75320994 19 4 C20.9375 6.75 20.9375 6.75 22 9 C21.01 9 20.02 9 19 9 C17.66666667 7.66666667 16.33333333 6.33333333 15 5 C10.122623 1.93746096 5.62083121 1.36223134 0 1 C0 0.67 0 0.34 0 0 Z " fill="#1B7488" transform="translate(181,141)"/>
<path d="M0 0 C0.66 0.33 1.32 0.66 2 1 C-6 11 -6 11 -8.203125 13.70703125 C-10.01273945 15.85907075 -10.01273945 15.85907075 -11 18 C-11.66 18 -12.32 18 -13 18 C-12.40674464 14.79088808 -11.42413843 12.98744159 -9.27734375 10.546875 C-8.73916016 9.928125 -8.20097656 9.309375 -7.64648438 8.671875 C-7.08251953 8.03765625 -6.51855469 7.4034375 -5.9375 6.75 C-5.08575195 5.77546875 -5.08575195 5.77546875 -4.21679688 4.78125 C-2.8174556 3.18200283 -1.40954759 1.59025881 0 0 Z " fill="#1C6C81" transform="translate(119,75)"/>
<path d="M0 0 C4.49898348 3.16447151 7.00038423 6.6458038 9.8125 11.25 C10.21919922 11.8996875 10.62589844 12.549375 11.04492188 13.21875 C12.03791918 14.80754568 13.02008541 16.40310215 14 18 C13.34 18.33 12.68 18.66 12 19 C12 18.34 12 17.68 12 17 C11.34 17 10.68 17 10 17 C8.6328125 15.2421875 8.6328125 15.2421875 7.125 12.875 C6.5990625 12.05644531 6.073125 11.23789062 5.53125 10.39453125 C5.0259375 9.60433594 4.520625 8.81414063 4 8 C3.21088164 6.8524102 2.4196678 5.70625401 1.625 4.5625 C0 2 0 2 0 0 Z " fill="#1B6B7D" transform="translate(197,39)"/>
<path d="M0 0 C2.97 0.495 2.97 0.495 6 1 C6 1.66 6 2.32 6 3 C6.99 3.33 7.98 3.66 9 4 C11.48776943 7.45703024 13.10622633 10.72528401 12.75 15 C12.5025 15.66 12.255 16.32 12 17 C11.67 17 11.34 17 11 17 C10.773125 15.783125 10.54625 14.56625 10.3125 13.3125 C9.23917281 8.99635449 7.40322543 6.91705037 4 4 C2.66666667 2.66666667 1.33333333 1.33333333 0 0 Z " fill="#156775" transform="translate(174,44)"/>
<path d="M0 0 C3.18871281 0.29120665 4.0617718 1.06662078 6.2890625 3.46875 C7.44535156 4.96921875 7.44535156 4.96921875 8.625 6.5 C11.34196441 10.31067195 11.34196441 10.31067195 15 13 C14.67 13.99 14.34 14.98 14 16 C8.76433598 10.96965614 4.00408469 6.07070905 0 0 Z " fill="#217187" transform="translate(164,175)"/>
<path d="M0 0 C1.41377341 2.63904371 2.37240135 5.07120629 3 8 C7.7897321 8.23428313 7.7897321 8.23428313 12 6 C12 6.99 12 7.98 12 9 C9 11 9 11 6.0625 10.9375 C2.2056104 9.75681951 0.9800695 8.48492233 -1 5 C-0.75 2.1875 -0.75 2.1875 0 0 Z " fill="#1E6D7E" transform="translate(56,146)"/>
<path d="M0 0 C0.66 0.33 1.32 0.66 2 1 C-0.475 5.455 -0.475 5.455 -3 10 C-3.99 10 -4.98 10 -6 10 C-6.33 12.31 -6.66 14.62 -7 17 C-7.66 16.67 -8.32 16.34 -9 16 C-8.67 13.03 -8.34 10.06 -8 7 C-6.68 7 -5.36 7 -4 7 C-3.71125 6.21625 -3.4225 5.4325 -3.125 4.625 C-2 2 -2 2 0 0 Z " fill="#146D82" transform="translate(152,48)"/>
<path d="M0 0 C2 2 2 2 2.23046875 4.2421875 C2.21628906 5.11101562 2.20210937 5.97984375 2.1875 6.875 C2.18105469 7.73867187 2.17460937 8.60234375 2.16796875 9.4921875 C2.0105682 11.84221431 1.85229953 13.80274224 1 16 C0.01 16.33 -0.98 16.66 -2 17 C-1.34 11.39 -0.68 5.78 0 0 Z " fill="#0D6E8B" transform="translate(222,120)"/>
<path d="M0 0 C1.89132737 3.78265474 2.52487043 6.31756285 3.125 10.4375 C3.29257813 11.54996094 3.46015625 12.66242188 3.6328125 13.80859375 C3.95177944 16.5808915 4.07289361 19.2144227 4 22 C1.8480563 18.77208445 1.79913557 17.71599191 2 14 C1.34 14 0.68 14 0 14 C0 9.38 0 4.76 0 0 Z " fill="#23677B" transform="translate(127,105)"/>
<path d="M0 0 C0.33 0 0.66 0 1 0 C1.33 2.64 1.66 5.28 2 8 C1.01 8.495 1.01 8.495 0 9 C-0.99 10.485 -0.99 10.485 -2 12 C-3.1875 9.3125 -3.1875 9.3125 -4 6 C-2.88483109 3.61035234 -1.86049542 1.86049542 0 0 Z " fill="#19809E" transform="translate(80,135)"/>
<path d="M0 0 C-0.99 0.66 -1.98 1.32 -3 2 C-4.2065625 1.7525 -4.2065625 1.7525 -5.4375 1.5 C-7.95997327 0.79634559 -7.95997327 0.79634559 -10.1875 1.6875 C-12.31202953 3.22595242 -13.03558469 4.58896173 -14 7 C-14.66 7 -15.32 7 -16 7 C-15.77039733 3.7855626 -14.91240233 2.91897216 -12.5 0.6875 C-7.9496119 -1.50643712 -4.83197628 -0.98787071 0 0 Z " fill="#146174" transform="translate(124,48)"/>
<path d="M0 0 C4.02992782 0.55312735 8.02022924 1.1558062 12 2 C9.3144406 4.6855594 6.62378672 5.06049974 3 6 C2.34 5.34 1.68 4.68 1 4 C1 3.34 1 2.68 1 2 C0.67 1.34 0.34 0.68 0 0 Z " fill="#1279A1" transform="translate(153,10)"/>
<path d="M0 0 C0.99 0.33 1.98 0.66 3 1 C2.34 1 1.68 1 1 1 C0.01751476 5.0527516 -0.08159574 8.83861737 0 13 C-0.33 12.01 -0.66 11.02 -1 10 C-1.66 10 -2.32 10 -3 10 C-4.1092904 6.67212881 -4.01557588 5.3006216 -3 2 C-2.01 1.34 -1.02 0.68 0 0 Z " fill="#1E7490" transform="translate(127,150)"/>
<path d="M0 0 C0 0.66 0 1.32 0 2 C-4.29 3.65 -8.58 5.3 -13 7 C-13 5.68 -13 4.36 -13 3 C-11.39743892 2.49487756 -9.79288208 1.99608373 -8.1875 1.5 C-7.29417969 1.2215625 -6.40085937 0.943125 -5.48046875 0.65625 C-3 0 -3 0 0 0 Z " fill="#16738D" transform="translate(43,141)"/>
<path d="M0 0 C0.721875 0.268125 1.44375 0.53625 2.1875 0.8125 C0.41741404 2.86207322 -0.71838163 3.77955857 -3.3125 4.6875 C-6.47672269 6.11140021 -7.28929851 7.76609703 -8.8125 10.8125 C-9.8025 10.4825 -10.7925 10.1525 -11.8125 9.8125 C-11.1525 9.8125 -10.4925 9.8125 -9.8125 9.8125 C-9.585625 9.090625 -9.35875 8.36875 -9.125 7.625 C-7.15715261 3.40818416 -5.00762755 -0.33384184 0 0 Z " fill="#17779B" transform="translate(156.8125,44.1875)"/>
<path d="M0 0 C0.33 0.66 0.66 1.32 1 2 C1.66 2 2.32 2 3 2 C2.25 4.9375 2.25 4.9375 1 8 C-1.125 8.875 -1.125 8.875 -3 9 C-3.75 7.3125 -3.75 7.3125 -4 5 C-2.0625 2.25 -2.0625 2.25 0 0 Z " fill="#1370A1" transform="translate(105,91)"/>
<path d="M0 0 C4.78504172 2.48454089 7.86077669 4.47951843 11 9 C10.67 9.66 10.34 10.32 10 11 C8.49428343 9.88266271 6.99555708 8.75589965 5.5 7.625 C4.6646875 6.99851563 3.829375 6.37203125 2.96875 5.7265625 C2.3190625 5.15679687 1.669375 4.58703125 1 4 C1 3.34 1 2.68 1 2 C0.34 1.67 -0.32 1.34 -1 1 C-0.67 0.67 -0.34 0.34 0 0 Z " fill="#116A83" transform="translate(33,191)"/>
<path d="M0 0 C0.33 0 0.66 0 1 0 C1 2.97 1 5.94 1 9 C-0.32 9.33 -1.64 9.66 -3 10 C-3.23226952 6.59338044 -3.35720302 4.59016151 -1.5625 1.625 C-0.7890625 0.820625 -0.7890625 0.820625 0 0 Z " fill="#04718E" transform="translate(49,142)"/>
<path d="M0 0 C1.051875 1.1446875 1.051875 1.1446875 2.125 2.3125 C4.96352604 4.96590478 7.46949051 6.44000743 11 8 C11 8.66 11 9.32 11 10 C5.64847115 9.67566492 2.71719957 6.50295176 -1 3 C-0.67 2.01 -0.34 1.02 0 0 Z " fill="#1B6F87" transform="translate(158,129)"/>
<path d="M0 0 C1.8125 0.125 1.8125 0.125 4 1 C6.66280693 5.08931064 7.34568576 8.16039934 7 13 C6.34 13 5.68 13 5 13 C4.89042969 12.39671875 4.78085938 11.7934375 4.66796875 11.171875 C3.49202872 5.06315013 3.49202872 5.06315013 0 0 Z " fill="#19687C" transform="translate(83,113)"/>
<path d="M0 0 C0.33 0 0.66 0 1 0 C1 2.64 1 5.28 1 8 C1.66 8 2.32 8 3 8 C2.67 11.96 2.34 15.92 2 20 C1.67 20 1.34 20 1 20 C0.11978631 13.28837062 -0.11381955 6.76594019 0 0 Z " fill="#27748E" transform="translate(148,100)"/>
<path d="M0 0 C1.12775725 3.38327175 1.47249782 5.81875546 0.125 9.1875 C-1 11 -1 11 -3 12 C-3.75 9.375 -3.75 9.375 -4 6 C-2.0625 2.625 -2.0625 2.625 0 0 Z " fill="#207792" transform="translate(144,68)"/>
<path d="M0 0 C-0.99 0.495 -0.99 0.495 -2 1 C-0.68 1.66 0.64 2.32 2 3 C-5.38461538 4.35384615 -5.38461538 4.35384615 -8.5 2.5625 C-8.995 2.046875 -9.49 1.53125 -10 1 C-3.71428571 -1.42857143 -3.71428571 -1.42857143 0 0 Z " fill="#267089" transform="translate(164,41)"/>
<path d="M0 0 C0.8971875 0.309375 0.8971875 0.309375 1.8125 0.625 C0.4925 1.945 -0.8275 3.265 -2.1875 4.625 C-2.8475 4.295 -3.5075 3.965 -4.1875 3.625 C-4.5175 4.285 -4.8475 4.945 -5.1875 5.625 C-6.83113134 6.34659424 -8.49800386 7.01851421 -10.1875 7.625 C-3.56304585 -0.61080786 -3.56304585 -0.61080786 0 0 Z " fill="#1D708D" transform="translate(47.1875,21.375)"/>
<path d="M0 0 C0.66 0.33 1.32 0.66 2 1 C0.17328621 3.53926173 -1.66877878 5.9050512 -4 8 C-7.375 8.4375 -7.375 8.4375 -10 8 C-9 6 -9 6 -6.6875 5.125 C-3.71091157 3.87898624 -2.13992716 2.37769684 0 0 Z " fill="#136F82" transform="translate(91,133)"/>
<path d="M0 0 C0.33 0 0.66 0 1 0 C0.91266027 2.08410658 0.80447722 4.16734669 0.6875 6.25 C0.62949219 7.41015625 0.57148438 8.5703125 0.51171875 9.765625 C-0.01859068 13.11750442 -0.61850212 14.62438236 -3 17 C-3.66 17 -4.32 17 -5 17 C-4.70351562 16.30519531 -4.40703125 15.61039063 -4.1015625 14.89453125 C-2.94421163 11.85340716 -2.13934996 8.84912937 -1.375 5.6875 C-1.11460937 4.61886719 -0.85421875 3.55023438 -0.5859375 2.44921875 C-0.39257812 1.64097656 -0.19921875 0.83273438 0 0 Z " fill="#227589" transform="translate(193,117)"/>
<path d="M0 0 C2.35171131 0.59861742 4.6859378 1.26924352 7 2 C7.33 2.66 7.66 3.32 8 4 C7.34 4 6.68 4 6 4 C6 4.66 6 5.32 6 6 C3.69 5.34 1.38 4.68 -1 4 C-0.67 2.68 -0.34 1.36 0 0 Z " fill="#1481A1" transform="translate(57,127)"/>
<path d="M0 0 C0.66 0.66 1.32 1.32 2 2 C-0.97 5.3 -3.94 8.6 -7 12 C-7.33 11.01 -7.66 10.02 -8 9 C-6.8553125 7.88625 -6.8553125 7.88625 -5.6875 6.75 C-3.5606298 4.5736677 -1.7440044 2.47832204 0 0 Z " fill="#1A7187" transform="translate(136,60)"/>
<path d="M0 0 C2.95183101 2.95183101 3.08663988 5.95511947 4 10 C2.35 10 0.7 10 -1 10 C-0.67 6.7 -0.34 3.4 0 0 Z " fill="#217893" transform="translate(129,179)"/>
<path d="M0 0 C2.56616632 3.84924948 2.55097676 6.4349304 3 11 C1.68 11.99 0.36 12.98 -1 14 C-1.66 13.34 -2.32 12.68 -3 12 C-2.01 11.34 -1.02 10.68 0 10 C-0.08378906 9.36191406 -0.16757813 8.72382813 -0.25390625 8.06640625 C-0.35574219 7.24011719 -0.45757812 6.41382813 -0.5625 5.5625 C-0.66691406 4.73878906 -0.77132812 3.91507813 -0.87890625 3.06640625 C-0.91886719 2.38449219 -0.95882812 1.70257813 -1 1 C-0.67 0.67 -0.34 0.34 0 0 Z " fill="#1F667F" transform="translate(84,165)"/>
<path d="M0 0 C0.66 0.66 1.32 1.32 2 2 C1.45730469 2.33773437 0.91460937 2.67546875 0.35546875 3.0234375 C-0.71767578 3.69246094 -0.71767578 3.69246094 -1.8125 4.375 C-2.52019531 4.81585938 -3.22789062 5.25671875 -3.95703125 5.7109375 C-5.65432039 6.78188476 -7.33014358 7.88676239 -9 9 C-8.63594751 6.29561004 -8.31857318 5.25593617 -6.15234375 3.515625 C-5.42144531 3.09796875 -4.69054687 2.6803125 -3.9375 2.25 C-3.20402344 1.82203125 -2.47054687 1.3940625 -1.71484375 0.953125 C-1.14894531 0.63859375 -0.58304688 0.3240625 0 0 Z " fill="#187185" transform="translate(178,141)"/>
<path d="M0 0 C3.48670834 1.1094072 6.77484237 2.26337666 10 4 C10 4.66 10 5.32 10 6 C6.29706315 6.33663062 4.60465619 6.47736015 1.625 4.125 C0 2 0 2 0 0 Z " fill="#177E9C" transform="translate(66,133)"/>
<path d="M0 0 C1.8125 1.625 1.8125 1.625 3 3 C2.01 3.495 2.01 3.495 1 4 C1 3.34 1 2.68 1 2 C-0.093125 2.020625 -1.18625 2.04125 -2.3125 2.0625 C-6 2 -6 2 -9 1 C-9 0.34 -9 -0.32 -9 -1 C-5.37197314 -2.34371365 -3.3987849 -1.74296662 0 0 Z " fill="#137899" transform="translate(179,43)"/>
<path d="M0 0 C3.93548431 3.06093224 6.68116787 5.49115974 9 10 C8.01 10.495 8.01 10.495 7 11 C5.82750647 9.54634731 4.66216184 8.08692581 3.5 6.625 C2.52546875 5.40683594 2.52546875 5.40683594 1.53125 4.1640625 C0 2 0 2 0 0 Z " fill="#165E75" transform="translate(23,180)"/>
<path d="M0 0 C0.33 0.99 0.66 1.98 1 3 C1.66 3.66 2.32 4.32 3 5 C0.75 6.1875 0.75 6.1875 -2 7 C-4.3125 5.625 -4.3125 5.625 -6 4 C-5.195625 3.525625 -4.39125 3.05125 -3.5625 2.5625 C-1.15246512 1.23099846 -1.15246512 1.23099846 0 0 Z " fill="#0F7998" transform="translate(63,184)"/>
<path d="M0 0 C3.33523252 1.38009621 5.18607951 2.84950652 7 6 C6.67 6.99 6.34 7.98 6 9 C0.42857143 3.85714286 0.42857143 3.85714286 0 0 Z " fill="#1481A4" transform="translate(167,174)"/>
<path d="M0 0 C0.33 1.32 0.66 2.64 1 4 C3.31 4.66 5.62 5.32 8 6 C8 6.99 8 7.98 8 9 C3.545 7.02 3.545 7.02 -1 5 C-0.67 3.35 -0.34 1.7 0 0 Z " fill="#157D9E" transform="translate(73,93)"/>
<path d="M0 0 C4.46839215 -0.21278058 7.82262526 0.40861915 12 2 C12 2.66 12 3.32 12 4 C7.6822542 3.49202991 3.96697886 2.80317221 0 1 C0 0.67 0 0.34 0 0 Z " fill="#1E697F" transform="translate(70,217)"/>
<path d="M0 0 C0.66 0.33 1.32 0.66 2 1 C1.01 3.64 0.02 6.28 -1 9 C-1.99 9 -2.98 9 -4 9 C-2.68 6.03 -1.36 3.06 0 0 Z " fill="#13607C" transform="translate(221,136)"/>
<path d="M0 0 C3.25696479 0.41755959 4.63443291 0.63443291 7 3 C6.625 5.125 6.625 5.125 6 7 C6 6.34 6 5.68 6 5 C5.401875 4.71125 4.80375 4.4225 4.1875 4.125 C2 3 2 3 -1 1 C-0.67 0.67 -0.34 0.34 0 0 Z " fill="#0E84A3" transform="translate(80,114)"/>
<path d="M0 0 C1.15224028 0.92961422 2.29659176 1.8690125 3.4375 2.8125 C4.07558594 3.33457031 4.71367187 3.85664062 5.37109375 4.39453125 C7 6 7 6 8 9 C4.63704165 7.55873214 2.37072898 5.79407345 0 3 C0 2.01 0 1.02 0 0 Z " fill="#186B7E" transform="translate(189,30)"/>
<path d="M0 0 C-0.33 0.99 -0.66 1.98 -1 3 C-7.625 4.25 -7.625 4.25 -11 2 C-9.5422647 1.664061 -8.08378894 1.33133376 -6.625 1 C-5.40683594 0.7215625 -5.40683594 0.7215625 -4.1640625 0.4375 C-2 0 -2 0 0 0 Z " fill="#1B788A" transform="translate(162,153)"/>
<path d="M0 0 C0.66 0 1.32 0 2 0 C1.30058404 3.14737182 0.23921302 6.02588876 -1 9 C-1.66 8.01 -2.32 7.02 -3 6 C-1.65517241 1.65517241 -1.65517241 1.65517241 0 0 Z " fill="#137C9A" transform="translate(167,147)"/>
<path d="M0 0 C0.66 0 1.32 0 2 0 C1.45276317 3.37462715 0.9451 5.08235 -1 8 C-2.32 7.67 -3.64 7.34 -5 7 C-4.34 7 -3.68 7 -3 7 C-1.79371992 4.66785852 -0.8345262 2.50357861 0 0 Z " fill="#10697E" transform="translate(79,148)"/>
<path d="M0 0 C1 3 1 3 0.375 5.625 C-1 8 -1 8 -3.625 8.8125 C-4.800625 8.9053125 -4.800625 8.9053125 -6 9 C-4 6 -2 3 0 0 Z " fill="#176D83" transform="translate(116,102)"/>
<path d="M0 0 C0.33 0 0.66 0 1 0 C2.10228696 4.40914783 2.07654536 8.48382401 2 13 C0.45428722 10.68143083 -0.79618552 8.49361571 -2 6 C-1.34 6 -0.68 6 0 6 C0 4.02 0 2.04 0 0 Z " fill="#2E7D92" transform="translate(149,73)"/>
<path d="M0 0 C0.33 0 0.66 0 1 0 C1.20140476 3.62528568 0.85776765 5.86501708 -1 9 C-1.66 9 -2.32 9 -3 9 C-2.67 6.69 -2.34 4.38 -2 2 C-1.34 2 -0.68 2 0 2 C0 1.34 0 0.68 0 0 Z " fill="#177692" transform="translate(8,72)"/>
<path d="M0 0 C0.66 1.32 1.32 2.64 2 4 C1.34 4.99 0.68 5.98 0 7 C0 4.69 0 2.38 0 0 Z M3 1 C3.66 1 4.32 1 5 1 C4.67 3.64 4.34 6.28 4 9 C3.67 9 3.34 9 3 9 C2.61936779 6.6739143 2.28730055 4.33944736 2 2 C2.33 1.67 2.66 1.34 3 1 Z " fill="#076A8F" transform="translate(149,101)"/>
<path d="M0 0 C1.32 0 2.64 0 4 0 C4.33 1.98 4.66 3.96 5 6 C3.68 5.67 2.36 5.34 1 5 C1 4.34 1 3.68 1 3 C0.34 2.67 -0.32 2.34 -1 2 C-0.67 1.34 -0.34 0.68 0 0 Z " fill="#1184A2" transform="translate(144,72)"/>
<path d="M0 0 C-3.1254959 2.64465038 -6.08788267 3.84414715 -10 5 C-9 2 -9 2 -7.25 0.8125 C-4.70039426 -0.10819096 -2.69076919 -0.14948718 0 0 Z " fill="#1C7087" transform="translate(134,38)"/>
<path d="M0 0 C0.99 0.495 0.99 0.495 2 1 C1.67 2.32 1.34 3.64 1 5 C1.66 5 2.32 5 3 5 C3 6.65 3 8.3 3 10 C2.01 9.67 1.02 9.34 0 9 C0 6.03 0 3.06 0 0 Z " fill="#14789C" transform="translate(83,157)"/>
<path d="M0 0 C0.99 0 1.98 0 3 0 C1.70700306 2.88437779 0.34058637 4.87219421 -2 7 C-2.66 6.67 -3.32 6.34 -4 6 C-2.1875 3 -2.1875 3 0 0 Z " fill="#13657A" transform="translate(64,119)"/>
<path d="M0 0 C0.66 0.33 1.32 0.66 2 1 C0.02 3.31 -1.96 5.62 -4 8 C-4.33 7.01 -4.66 6.02 -5 5 C-3.35 3.35 -1.7 1.7 0 0 Z " fill="#187186" transform="translate(90,72)"/>
<path d="M0 0 C0.33 0.66 0.66 1.32 1 2 C-0.61594832 4.04119788 -2.2856382 6.04072937 -4 8 C-4.66 8 -5.32 8 -6 8 C-4.55746343 4.63408134 -2.66735273 2.48952921 0 0 Z " fill="#116F81" transform="translate(107,54)"/>
<path d="M0 0 C4.38889325 0.66498383 7.9811485 2.18757677 12 4 C8.64474971 5.11841676 8.02910146 4.91538821 4.875 3.6875 C4.17117187 3.42324219 3.46734375 3.15898437 2.7421875 2.88671875 C1 2 1 2 0 0 Z " fill="#266E7A" transform="translate(151,7)"/>
<path d="M0 0 C1.32 0.66 2.64 1.32 4 2 C4 3.32 4 4.64 4 6 C2.68 6 1.36 6 0 6 C-0.38218767 4.34385343 -0.71395102 2.67542976 -1 1 C-0.67 0.67 -0.34 0.34 0 0 Z " fill="#146BA9" transform="translate(125,67)"/>
<path d="M0 0 C2.97 0.495 2.97 0.495 6 1 C6 1.66 6 2.32 6 3 C6.66 3 7.32 3 8 3 C7.67 3.99 7.34 4.98 7 6 C5.83054208 5.19152271 4.66449539 4.37810888 3.5 3.5625 C2.8503125 3.11003906 2.200625 2.65757813 1.53125 2.19140625 C1.0259375 1.79824219 0.520625 1.40507813 0 1 C0 0.67 0 0.34 0 0 Z " fill="#23687E" transform="translate(174,44)"/>
<path d="M0 0 C1.32 0.66 2.64 1.32 4 2 C3.67 2.99 3.34 3.98 3 5 C1.02 5 -0.96 5 -3 5 C-2.01 3.35 -1.02 1.7 0 0 Z " fill="#15789A" transform="translate(134,33)"/>
<path d="M0 0 C1.32 0.66 2.64 1.32 4 2 C0.25 5 0.25 5 -2 5 C-1.34 3.35 -0.68 1.7 0 0 Z " fill="#296979" transform="translate(159,211)"/>
<path d="M0 0 C0.4125 0.45375 0.825 0.9075 1.25 1.375 C3.06408095 3.05950374 4.75285627 3.99265971 7 5 C6.34 5.66 5.68 6.32 5 7 C1.535 5.02 1.535 5.02 -2 3 C-1 1 -1 1 0 0 Z " fill="#117B9B" transform="translate(46,199)"/>
<path d="M0 0 C2.0625 0.4375 2.0625 0.4375 4 1 C3.01 1.33 2.02 1.66 1 2 C1 3.65 1 5.3 1 7 C0.34 7 -0.32 7 -1 7 C-1.04254356 5.00045254 -1.04080783 2.99958364 -1 1 C-0.67 0.67 -0.34 0.34 0 0 Z " fill="#19657A" transform="translate(49,135)"/>
<path d="M0 0 C0.66 0.66 1.32 1.32 2 2 C0.35 3.65 -1.3 5.3 -3 7 C-3.1875 4.625 -3.1875 4.625 -3 2 C-2.01 1.34 -1.02 0.68 0 0 Z " fill="#176B86" transform="translate(87,127)"/>
<path d="M0 0 C1.65 0.33 3.3 0.66 5 1 C5 1.66 5 2.32 5 3 C2.69 3.33 0.38 3.66 -2 4 C-2.33 3.34 -2.66 2.68 -3 2 C-2.01 2 -1.02 2 0 2 C0 1.34 0 0.68 0 0 Z " fill="#0D74A2" transform="translate(96,101)"/>
<path d="M0 0 C2.64 0.33 5.28 0.66 8 1 C8 1.66 8 2.32 8 3 C5.125 3.1875 5.125 3.1875 2 3 C1.34 2.01 0.68 1.02 0 0 Z " fill="#1D6C84" transform="translate(134,2)"/>
</svg>
